<svg xmlns="http://www.w3.org/2000/svg" width="990.212" height="741.521" viewBox="0 0 990.212 741.521"><defs><style>.a{fill:#7ecae1;}.b{fill:#6eb1cb;}.c{fill:#c4ebf0;}.d{fill:#e0f5f8;}.e{fill:#f0faff;}.f{fill:#fff;}.g{fill:#57a542;}.h{fill:#6bb14e;}.i{fill:#4a5d67;}.j{fill:#87a8b9;}.k{fill:#b3e3ef;}.l{fill:#262626;}.m{fill:#895e06;}.n{fill:#fbb62a;}.o{fill:#f03e30;}.p{fill:#bc7e00;}.q{fill:#a54f08;}.r{fill:#ff790b;}.s{fill:#d26b16;}.t{fill:#a4160a;}.u{fill:#feb3b0;}.v{fill:#f99393;}.w{fill:#fa993b;}.x{fill:#1f2b73;}.y{fill:#ebeff2;}.z{fill:#222a41;}.aa{fill:#0e1c54;}.ab{fill:#523e2b;}.ac{fill:#0e47bc;}.ad{fill:#1472fa;}.ae{fill:#f6c15c;}.af{fill:#fcb1b5;}.ag{fill:#ffcfd2;}</style></defs><g transform="translate(-0.622 -0.812)"><path class="a" d="M0,521.6H445.834V0H0Z" transform="translate(451.97 0.812)"/><path class="b" d="M0,145.108H180.8V0H0Z" transform="translate(683.162 23.568)"/><path class="c" d="M0,46.139H93.549V0H0Z" transform="translate(719.712 122.537)"/><path class="d" d="M0,46.139H35.553V0H0Z" transform="translate(813.262 122.537)"/><path class="e" d="M0,0H93.549L20.489,1.187Z" transform="translate(719.712 145.606)"/><path class="e" d="M93.549,0H0L73.06,1.187Z" transform="translate(719.712 163.102)"/><path class="e" d="M0,0H59.257L6.581.969Z" transform="translate(719.712 132.71)"/><path class="e" d="M59.257,0H0L52.675.969Z" transform="translate(754.005 156.31)"/><path class="e" d="M0,.1H66.835L55.7.68Z" transform="translate(742.153 127.477)"/><path class="e" d="M0,.1H66.836L55.7.68Z" transform="translate(728.805 150.455)"/><path class="e" d="M0,0H43.356L51.1,1.551Z" transform="translate(769.906 137.103)"/><path class="e" d="M0,0H43.357L51.1,1.551Z" transform="translate(707.766 137.103)"/><path class="e" d="M51.1,0H7.746L0,1.55Z" transform="translate(712.298 157.84)"/><path class="f" d="M0,0H34.815l7.747,1.551Z" transform="translate(813.262 152.574)"/><path class="f" d="M0,1.267H27L23.4,0Z" transform="translate(825.414 144.339)"/><path class="c" d="M0,46.139H93.55V0H0Z" transform="translate(704.404 76.08)"/><path class="d" d="M0,46.139H35.552V0H0Z" transform="translate(797.954 76.08)"/><path class="e" d="M0,0H93.55L20.489,1.187Z" transform="translate(704.404 99.149)"/><path class="e" d="M93.55,0H0L73.061,1.187Z" transform="translate(704.404 116.645)"/><path class="e" d="M0,0H59.257L6.581.969Z" transform="translate(704.404 86.253)"/><path class="e" d="M59.257,0H0L52.675.969Z" transform="translate(738.697 109.853)"/><path class="e" d="M0,.1H66.835L55.7.68Z" transform="translate(726.844 81.019)"/><path class="e" d="M0,.1H66.835L55.7.68Z" transform="translate(713.497 103.998)"/><path class="e" d="M0,0H43.356L51.1,1.551Z" transform="translate(754.598 90.646)"/><path class="e" d="M0,0H43.356L51.1,1.551Z" transform="translate(692.459 90.646)"/><path class="e" d="M51.1,0H7.747L0,1.55Z" transform="translate(696.99 111.383)"/><path class="f" d="M0,0H34.814l7.747,1.551Z" transform="translate(797.954 106.117)"/><path class="f" d="M0,1.267H27L23.4,0Z" transform="translate(810.105 97.882)"/><path class="b" d="M0,145.108H180.8V0H0Z" transform="translate(485.815 23.568)"/><path class="c" d="M0,46.139H93.55V0H0Z" transform="translate(512.398 122.537)"/><path class="d" d="M0,46.139H35.552V0H0Z" transform="translate(605.948 122.537)"/><path class="e" d="M0,0H93.55L20.489,1.187Z" transform="translate(512.398 145.606)"/><path class="e" d="M93.55,0H0L73.061,1.187Z" transform="translate(512.398 163.102)"/><path class="e" d="M0,0H59.257L6.581.969Z" transform="translate(512.398 132.71)"/><path class="e" d="M59.257,0H0L52.675.969Z" transform="translate(546.69 156.31)"/><path class="e" d="M0,.1H66.835L55.7.68Z" transform="translate(534.838 127.477)"/><path class="e" d="M0,.1H66.835L55.7.68Z" transform="translate(521.491 150.455)"/><path class="e" d="M0,0H43.357L51.1,1.551Z" transform="translate(562.591 137.103)"/><path class="e" d="M0,0H43.356L51.1,1.551Z" transform="translate(500.453 137.103)"/><path class="e" d="M51.1,0H7.747L0,1.55Z" transform="translate(504.983 157.84)"/><path class="f" d="M0,0H34.814l7.747,1.551Z" transform="translate(605.948 152.574)"/><path class="f" d="M0,1.267H27L23.4,0Z" transform="translate(618.099 144.339)"/><path class="c" d="M0,46.139H93.55V0H0Z" transform="translate(512.398 76.674)"/><path class="d" d="M0,46.139H35.552V0H0Z" transform="translate(605.948 76.674)"/><path class="e" d="M0,0H93.55L20.489,1.187Z" transform="translate(512.398 99.743)"/><path class="e" d="M93.55,0H0L73.061,1.187Z" transform="translate(512.398 117.239)"/><path class="e" d="M0,0H59.257L6.581.969Z" transform="translate(512.398 86.847)"/><path class="e" d="M59.257,0H0L52.675.969Z" transform="translate(546.69 110.446)"/><path class="e" d="M0,.1H66.835L55.7.68Z" transform="translate(534.838 81.613)"/><path class="e" d="M0,.1H66.835L55.7.68Z" transform="translate(521.491 104.592)"/><path class="e" d="M0,0H43.357L51.1,1.55Z" transform="translate(562.591 91.24)"/><path class="e" d="M0,0H43.356L51.1,1.55Z" transform="translate(500.453 91.24)"/><path class="e" d="M51.1,0H7.747L0,1.55Z" transform="translate(504.983 111.977)"/><path class="f" d="M0,0H34.814l7.747,1.551Z" transform="translate(605.948 106.71)"/><path class="f" d="M0,1.267H27L23.4,0Z" transform="translate(618.099 98.475)"/><path class="b" d="M0,145.108H180.8V0H0Z" transform="translate(485.815 187.772)"/><path class="c" d="M0,46.139H93.55V0H0Z" transform="translate(536.511 286.741)"/><path class="d" d="M0,46.139H35.552V0H0Z" transform="translate(500.959 286.741)"/><path class="e" d="M93.55,0H0L73.061,1.187Z" transform="translate(536.512 309.81)"/><path class="e" d="M0,0H93.55L20.489,1.187Z" transform="translate(536.511 327.306)"/><path class="e" d="M59.257,0H0L52.675.969Z" transform="translate(570.805 296.914)"/><path class="e" d="M0,0H59.257L6.582.969Z" transform="translate(536.511 320.514)"/><path class="e" d="M66.835.1H0L11.139.68Z" transform="translate(540.786 291.68)"/><path class="e" d="M66.836.1H0L11.14.68Z" transform="translate(554.133 314.659)"/><path class="e" d="M51.1,0H7.746L0,1.55Z" transform="translate(528.765 301.307)"/><path class="e" d="M51.1,0H7.746L0,1.55Z" transform="translate(590.905 301.307)"/><path class="e" d="M0,0H43.356L51.1,1.55Z" transform="translate(586.373 322.044)"/><path class="f" d="M42.561,0H7.747L0,1.551Z" transform="translate(493.951 316.778)"/><path class="f" d="M27,1.267H0L3.6,0Z" transform="translate(497.362 308.543)"/><path class="c" d="M0,46.139H93.55V0H0Z" transform="translate(551.819 240.284)"/><path class="d" d="M0,46.139H35.552V0H0Z" transform="translate(516.267 240.284)"/><path class="e" d="M93.55,0H0L73.06,1.187Z" transform="translate(551.82 263.353)"/><path class="e" d="M0,0H93.55L20.489,1.187Z" transform="translate(551.82 280.849)"/><path class="e" d="M59.257,0H0L52.675.969Z" transform="translate(586.113 250.457)"/><path class="e" d="M0,0H59.257L6.581.969Z" transform="translate(551.82 274.056)"/><path class="e" d="M66.836.1H0L11.14.68Z" transform="translate(556.093 245.223)"/><path class="e" d="M66.835.1H0L11.139.68Z" transform="translate(569.441 268.202)"/><path class="e" d="M51.1,0H7.746L0,1.55Z" transform="translate(544.073 254.85)"/><path class="e" d="M51.1,0H7.747L0,1.55Z" transform="translate(606.212 254.85)"/><path class="e" d="M0,0H43.356L51.1,1.55Z" transform="translate(601.682 275.587)"/><path class="f" d="M42.561,0H7.746L0,1.551Z" transform="translate(509.259 270.321)"/><path class="f" d="M27,1.267H0L3.6,0Z" transform="translate(512.67 262.086)"/><path class="b" d="M0,145.108H180.8V0H0Z" transform="translate(683.162 187.772)"/><path class="c" d="M0,46.139H93.55V0H0Z" transform="translate(743.826 286.741)"/><path class="d" d="M0,46.139H35.552V0H0Z" transform="translate(708.274 286.741)"/><path class="e" d="M93.55,0H0L73.06,1.187Z" transform="translate(743.826 309.81)"/><path class="e" d="M0,0H93.55L20.489,1.187Z" transform="translate(743.826 327.306)"/><path class="e" d="M59.257,0H0L52.675.969Z" transform="translate(778.12 296.914)"/><path class="e" d="M0,0H59.257L6.581.969Z" transform="translate(743.826 320.514)"/><path class="e" d="M66.836.1H0L11.14.68Z" transform="translate(748.1 291.68)"/><path class="e" d="M66.835.1H0L11.139.68Z" transform="translate(761.448 314.659)"/><path class="e" d="M51.1,0H7.746L0,1.55Z" transform="translate(736.08 301.307)"/><path class="e" d="M51.1,0H7.746L0,1.55Z" transform="translate(798.219 301.307)"/><path class="e" d="M0,0H43.356L51.1,1.55Z" transform="translate(793.688 322.044)"/><path class="f" d="M42.561,0H7.747L0,1.551Z" transform="translate(701.265 316.778)"/><path class="f" d="M27,1.267H0L3.6,0Z" transform="translate(704.676 308.543)"/><path class="c" d="M0,46.139H93.55V0H0Z" transform="translate(743.826 240.877)"/><path class="d" d="M0,46.139H35.552V0H0Z" transform="translate(708.274 240.877)"/><path class="e" d="M93.55,0H0L73.06,1.187Z" transform="translate(743.826 263.946)"/><path class="e" d="M0,0H93.55L20.489,1.187Z" transform="translate(743.826 281.442)"/><path class="e" d="M59.257,0H0L52.675.969Z" transform="translate(778.12 251.05)"/><path class="e" d="M0,0H59.257L6.581.969Z" transform="translate(743.826 274.65)"/><path class="e" d="M66.836.1H0L11.14.68Z" transform="translate(748.1 245.816)"/><path class="e" d="M66.835.1H0L11.139.68Z" transform="translate(761.448 268.795)"/><path class="e" d="M51.1,0H7.746L0,1.551Z" transform="translate(736.08 255.443)"/><path class="e" d="M51.1,0H7.746L0,1.551Z" transform="translate(798.219 255.443)"/><path class="e" d="M0,0H43.356L51.1,1.55Z" transform="translate(793.688 276.18)"/><path class="f" d="M42.561,0H7.747L0,1.551Z" transform="translate(701.265 270.914)"/><path class="f" d="M27,1.267H0L3.6,0Z" transform="translate(704.676 262.679)"/><path class="b" d="M0,145.108H180.8V0H0Z" transform="translate(683.162 346.133)"/><path class="c" d="M0,46.139H93.549V0H0Z" transform="translate(719.712 445.102)"/><path class="d" d="M0,46.139H35.553V0H0Z" transform="translate(813.262 445.102)"/><path class="e" d="M0,0H93.549L20.489,1.187Z" transform="translate(719.712 468.172)"/><path class="e" d="M93.549,0H0L73.06,1.187Z" transform="translate(719.712 485.668)"/><path class="e" d="M0,0H59.257L6.581.969Z" transform="translate(719.712 455.276)"/><path class="e" d="M59.257,0H0L52.675.969Z" transform="translate(754.005 478.875)"/><path class="e" d="M0,.1H66.835L55.7.68Z" transform="translate(742.153 450.042)"/><path class="e" d="M0,.1H66.836L55.7.68Z" transform="translate(728.805 473.021)"/><path class="e" d="M0,0H43.356L51.1,1.551Z" transform="translate(769.906 459.668)"/><path class="e" d="M0,0H43.357L51.1,1.551Z" transform="translate(707.766 459.668)"/><path class="e" d="M51.1,0H7.746L0,1.55Z" transform="translate(712.298 480.405)"/><path class="f" d="M0,0H34.815l7.747,1.551Z" transform="translate(813.262 475.139)"/><path class="f" d="M0,1.267H27L23.4,0Z" transform="translate(825.414 466.904)"/><path class="c" d="M0,46.139H93.55V0H0Z" transform="translate(704.404 398.645)"/><path class="d" d="M0,46.139H35.552V0H0Z" transform="translate(797.954 398.645)"/><path class="e" d="M0,0H93.55L20.489,1.187Z" transform="translate(704.404 421.714)"/><path class="e" d="M93.55,0H0L73.061,1.187Z" transform="translate(704.404 439.21)"/><path class="e" d="M0,0H59.257L6.581.969Z" transform="translate(704.404 408.819)"/><path class="e" d="M59.257,0H0L52.675.969Z" transform="translate(738.697 432.418)"/><path class="e" d="M0,.1H66.835L55.7.68Z" transform="translate(726.844 403.585)"/><path class="e" d="M0,.1H66.835L55.7.679Z" transform="translate(713.497 426.563)"/><path class="e" d="M0,0H43.356L51.1,1.551Z" transform="translate(754.598 413.211)"/><path class="e" d="M0,0H43.356L51.1,1.551Z" transform="translate(692.459 413.211)"/><path class="e" d="M51.1,0H7.747L0,1.55Z" transform="translate(696.99 433.948)"/><path class="f" d="M0,0H34.814l7.747,1.55Z" transform="translate(797.954 428.682)"/><path class="f" d="M0,1.267H27L23.4,0Z" transform="translate(810.105 420.447)"/><path class="b" d="M0,145.108H180.8V0H0Z" transform="translate(485.815 346.133)"/><path class="c" d="M0,46.139H93.55V0H0Z" transform="translate(512.398 445.102)"/><path class="d" d="M0,46.139H35.552V0H0Z" transform="translate(605.948 445.102)"/><path class="e" d="M0,0H93.55L20.489,1.187Z" transform="translate(512.398 468.172)"/><path class="e" d="M93.55,0H0L73.061,1.187Z" transform="translate(512.398 485.668)"/><path class="e" d="M0,0H59.257L6.581.969Z" transform="translate(512.398 455.276)"/><path class="e" d="M59.257,0H0L52.675.969Z" transform="translate(546.69 478.875)"/><path class="e" d="M0,.1H66.835L55.7.68Z" transform="translate(534.838 450.042)"/><path class="e" d="M0,.1H66.835L55.7.68Z" transform="translate(521.491 473.021)"/><path class="e" d="M0,0H43.357L51.1,1.551Z" transform="translate(562.591 459.668)"/><path class="e" d="M0,0H43.356L51.1,1.551Z" transform="translate(500.453 459.668)"/><path class="e" d="M51.1,0H7.747L0,1.55Z" transform="translate(504.983 480.405)"/><path class="f" d="M0,0H34.814l7.747,1.551Z" transform="translate(605.948 475.139)"/><path class="f" d="M0,1.267H27L23.4,0Z" transform="translate(618.099 466.904)"/><path class="c" d="M0,46.139H93.55V0H0Z" transform="translate(512.398 399.238)"/><path class="d" d="M0,46.139H35.552V0H0Z" transform="translate(605.948 399.238)"/><path class="e" d="M0,0H93.55L20.489,1.187Z" transform="translate(512.398 422.308)"/><path class="e" d="M93.55,0H0L73.061,1.187Z" transform="translate(512.398 439.804)"/><path class="e" d="M0,0H59.257L6.581.969Z" transform="translate(512.398 409.412)"/><path class="e" d="M59.257,0H0L52.675.969Z" transform="translate(546.69 433.011)"/><path class="e" d="M0,.1H66.835L55.7.68Z" transform="translate(534.838 404.178)"/><path class="e" d="M0,.1H66.835L55.7.68Z" transform="translate(521.491 427.157)"/><path class="e" d="M0,0H43.357L51.1,1.551Z" transform="translate(562.591 413.805)"/><path class="e" d="M0,0H43.356L51.1,1.551Z" transform="translate(500.453 413.805)"/><path class="e" d="M51.1,0H7.747L0,1.55Z" transform="translate(504.983 434.542)"/><path class="f" d="M0,0H34.814l7.747,1.551Z" transform="translate(605.948 429.276)"/><path class="f" d="M0,1.267H27L23.4,0Z" transform="translate(618.099 421.04)"/><path class="g" d="M.43.478V.51C.5.51.531.5.531.494S.5.478.43.478" transform="translate(962.473 493.016)"/><path class="g" d="M7.933.124C7.941.085,7.941.039,7.948,0c-.163.42-.358.919-.591,1.51-.156.428-.335.9-.53,1.416-.171.53-.357,1.1-.561,1.712-.4,1.23-.864,2.624-1.276,4.2-.218.786-.444,1.6-.678,2.46-.21.864-.42,1.767-.639,2.694-.467,1.861-.809,3.877-1.238,5.986C1.7,24.225,1.051,28.911.616,33.863.2,38.814.039,43.547,0,47.844c.008,4.3.1,8.181.32,11.428.046.981.109,1.907.179,2.771H.786c-.054-.864-.109-1.8-.14-2.787C.467,56.01.412,52.141.428,47.852c.063-4.3.242-9.015.647-13.95.435-4.935,1.066-9.614,1.774-13.848.42-2.1.747-4.118,1.2-5.971.211-.927.412-1.829.608-2.693.226-.856.443-1.674.646-2.46.389-1.58.833-2.982,1.215-4.212C6.695,4.1,6.874,3.526,7.03,3c.187-.522.35-1,.5-1.432C7.715,1,7.886.522,8.018.116Z" transform="translate(932.449 422.5)"/><path class="g" d="M.635,87.779H.386C.308,80.158.229,67.313.183,52.452c-.007-1.6-.007-3.223-.015-4.865C.16,44.232.152,40.955.144,37.794v-.809C.129,29.395.129,22.5.137,16.768v-.5c0-2.211.007-4.25.007-6.072C.168,3.806.206,0,.261,0S.378,3.783.433,10.128c.023,1.93.038,4.094.046,6.461.008.179.008.359.008.537.039,5.823.078,12.821.1,20.512.007.273.007.545.007.825.016,2.95.024,6,.031,9.123,0,1.432.009,2.841.009,4.243.039,15.125.039,28.219,0,35.949" transform="translate(927.556 396.764)"/><path class="g" d="M5.964,0a3.635,3.635,0,0,1-.171.49q-.233.537-.584,1.378c-.125.3-.265.638-.42,1-.133.374-.281.778-.428,1.207-.163.436-.327.9-.506,1.386s-.3,1.027-.475,1.58A50.337,50.337,0,0,0,2.1,12.19V12.2c-.179.888-.358,1.814-.529,2.771a97.669,97.669,0,0,0-1,9.918,134.02,134.02,0,0,0,.514,18.107c.1,1.074.2,2.055.289,2.927H1.1C.99,45.065.873,44.092.756,43.033A119.568,119.568,0,0,1,.1,24.864,92.364,92.364,0,0,1,1.145,14.9c.226-1.183.452-2.32.693-3.394a41.953,41.953,0,0,1,1.23-4.562c.179-.553.327-1.089.514-1.58s.366-.95.537-1.386.32-.825.467-1.2.319-.685.459-.981c.273-.553.491-1,.663-1.347A2.219,2.219,0,0,1,5.964,0" transform="translate(936.551 438.621)"/><path class="g" d="M.647,0a6.05,6.05,0,0,1-.2.693C.414.786.383.88.335.989a.109.109,0,0,1-.015.054C.3,1.1.281,1.16.257,1.222L.172,1.23c.007-.039.007-.085.015-.124C.187,1.1.2,1.09.2,1.082Q.277.849.359.662C.5.312.584.085.623.023.631.015.631.008.639,0Z" transform="translate(940.21 421.394)"/><path class="g" d="M11.882,84.9h-.288c-.062-.958-.124-1.962-.2-3.021-.428-6.71-1.011-15.39-1.914-25.058-.281-2.951-.592-6-.935-9.116-.3-2.584-.6-5.114-.927-7.574v-.008c-.077-.584-.156-1.16-.234-1.736v-.023c-.2-1.487-.405-2.943-.615-4.375-.023-.148-.046-.288-.062-.428C6.479,32,6.246,30.476,6.013,29c-.482-2.865-.919-5.582-1.416-8.111-.187-1.036-.375-2.04-.569-3.006l-.093-.49c-.25-1.238-.5-2.421-.732-3.55-.428-2.149-.9-4.08-1.284-5.777C1.8,7.543,1.692,7.045,1.575,6.57c-.25-1.074-.491-2.031-.7-2.857C.595,2.546.369,1.627.2.973Q.1.529.042.249A.719.719,0,0,1,0,0,1.5,1.5,0,0,1,.088.241c.054.179.124.413.2.7.187.662.436,1.573.763,2.724.21.771.451,1.659.7,2.655v.008c.14.529.273,1.082.412,1.673.405,1.7.9,3.62,1.355,5.768C3.755,14.86,4,16,4.253,17.18c.039.163.07.327.1.49.21,1.012.42,2.055.622,3.137.514,2.538.966,5.255,1.456,8.119.226,1.393.451,2.826.677,4.282.016.132.031.257.055.389.148,1.019.3,2.055.451,3.105v.008c.077.545.155,1.09.226,1.643.412,3,.809,6.11,1.168,9.295.334,3,.63,5.94.9,8.788.91,9.824,1.448,18.621,1.821,25.417.062,1.067.117,2.079.156,3.044" transform="translate(911.654 399.644)"/><path class="h" d="M20.37,5.327C20.088,2.309,17.038.031,14.007,0A10.019,10.019,0,0,0,6.3,4.185a24.106,24.106,0,0,0-3.712,8.24C.543,19.536-.573,27.006.3,34.353S4.153,48.932,9.424,54.122c.857.844,1.968,1.688,3.144,1.437a3.8,3.8,0,0,0,1.659-1.024A49.071,49.071,0,0,0,30.152,17.219c-.082-2.793-.449-5.7-2-8.028S23,4.392,20.37,5.327" transform="translate(907.19 401.681)"/><path class="g" d="M16.507,11.047q-2.134,3.866-4.269,7.732c-.1.181-.232.383-.437.4-.224.019-.392-.193-.515-.382L0,1.473,2.6,0Z" transform="translate(888.419 371.786)"/><path class="h" d="M16.507,11.047q-2.134,3.866-4.269,7.732c-.1.181-.232.383-.437.4-.224.019-.392-.193-.515-.382L0,1.473,2.6,0Z" transform="translate(888.419 371.786)"/><path class="h" d="M39.471,33.352.969,10.633a1.8,1.8,0,0,1-.938-.946c-.153-.569.274-1.119.686-1.542A26.533,26.533,0,0,1,21.293.061a23.51,23.51,0,0,1,18.6,11.569c3.716,6.639,3.839,15.42-.423,21.722" transform="translate(888.349 363.413)"/><path class="g" d="M0,.138A2.1,2.1,0,0,1,.5.075C.836.059,1.327,0,1.96.006A28.906,28.906,0,0,1,7.3.43,31.617,31.617,0,0,1,23.076,8.04a31.492,31.492,0,0,1,6.088,7.6,31.33,31.33,0,0,1,3.058,7.341,28.969,28.969,0,0,1,.954,5.273c.07.629.059,1.123.076,1.455a2.031,2.031,0,0,1-.013.508c-.041,0-.088-.7-.242-1.943a32.8,32.8,0,0,0-1.089-5.2A32.235,32.235,0,0,0,22.767,8.382,32.241,32.241,0,0,0,7.244.751,32.778,32.778,0,0,0,1.958.185C.7.158,0,.18,0,.138" transform="translate(894.867 366.655)"/><path class="g" d="M13.86.01a9.255,9.255,0,0,1-1.946.885C10.688,1.378,8.973,2,7.056,2.605S3.381,3.7,2.1,4.011a9.232,9.232,0,0,1-2.1.4A10.5,10.5,0,0,1,2.012,3.7l4.9-1.532L11.8.587A10.483,10.483,0,0,1,13.86.01" transform="translate(908.748 381.075)"/><path class="g" d="M.2,0A16.3,16.3,0,0,1,.655,4.295,16.288,16.288,0,0,1,.417,8.608a26.913,26.913,0,0,1-.224-4.3A26.816,26.816,0,0,1,.2,0" transform="translate(916.347 364.798)"/><path class="g" d="M0,4.744A17.3,17.3,0,0,1,2.8,3.76c1.749-.539,4.185-1.222,6.9-1.876s5.2-1.156,7-1.472a17.366,17.366,0,0,1,2.938-.4,20.6,20.6,0,0,1-2.875.718c-1.783.4-4.246.948-6.955,1.6S4.655,3.616,2.886,4.074A20.736,20.736,0,0,1,0,4.744" transform="translate(888.982 368.871)"/><path class="h" d="M43.329,2.869C40.018.359,36.516-.136,32.364.029a33.5,33.5,0,0,0-12,3.1C13.87,5.969,7.768,10.16,3.889,16.092S-1.34,29.877,1.564,36.342a2.888,2.888,0,0,0,1.315,1.6,3.147,3.147,0,0,0,2.173-.166c7.384-2.41,14.82-4.841,21.61-8.613s12.97-9.016,16.613-15.876a13.637,13.637,0,0,0,1.748-5.268,6.549,6.549,0,0,0-1.694-5.145" transform="translate(866.738 396.994)"/><path class="g" d="M40.844,0a2.7,2.7,0,0,1-.532.216L38.765.751l-1.121.374c-.406.145-.839.328-1.309.509-.934.378-2.019.756-3.161,1.31l-1.81.825c-.629.29-1.255.646-1.919.985-1.338.658-2.692,1.5-4.135,2.349a71.652,71.652,0,0,0-8.743,6.484,71.673,71.673,0,0,0-7.546,7.848c-1.029,1.322-2.034,2.558-2.857,3.8-.42.615-.854,1.191-1.221,1.777S4.23,28.164,3.9,28.7c-.7,1.062-1.208,2.09-1.7,2.968-.24.443-.476.849-.672,1.233s-.357.739-.513,1.063L.284,35.436a2.8,2.8,0,0,1-.282.5A2.6,2.6,0,0,1,.2,35.4c.167-.389.382-.888.647-1.506l.479-1.084c.186-.391.412-.805.641-1.256.475-.893.969-1.937,1.65-3.016l1.029-1.716c.362-.595.79-1.179,1.206-1.8.815-1.261,1.814-2.514,2.841-3.852a68.983,68.983,0,0,1,7.572-7.927,68.934,68.934,0,0,1,8.825-6.5c1.458-.848,2.828-1.68,4.182-2.327.672-.333,1.306-.683,1.942-.966l1.832-.8c1.156-.538,2.255-.9,3.2-1.253.476-.171.915-.342,1.327-.476L38.71.58,40.286.13A2.677,2.677,0,0,1,40.844,0" transform="translate(869.289 399.082)"/><path class="g" d="M16.239.01a77.691,77.691,0,0,1-8.055,2.6A77.974,77.974,0,0,1,0,4.759a77.663,77.663,0,0,1,8.056-2.6A77.672,77.672,0,0,1,16.239.01" transform="translate(868.023 413.082)"/><path class="g" d="M.209,17.127a12.9,12.9,0,0,1-.177-2.51c-.043-1.552-.049-3.7.016-6.064S.242,4.043.371,2.5A12.9,12.9,0,0,1,.688,0,14.347,14.347,0,0,1,.7,2.514C.645,4.214.581,6.281.51,8.566S.4,12.917.358,14.617a14.394,14.394,0,0,1-.149,2.51" transform="translate(883.722 413.741)"/><path class="g" d="M1.387,19.5c-.127.009-.532-4.35-.9-9.734S-.089.009.039,0s.532,4.349.9,9.735.571,9.757.444,9.766" transform="translate(897.771 403.611)"/><path class="g" d="M0,.081A14.345,14.345,0,0,1,2.582,0C4.175.013,6.372.06,8.8.141s4.623.179,6.212.273a14.29,14.29,0,0,1,2.571.249A14.223,14.223,0,0,1,15,.74C13.411.729,11.212.682,8.783.6S4.157.423,2.568.329A14.328,14.328,0,0,1,0,.081" transform="translate(880.204 403.107)"/><path class="g" d="M.175,50.762a2.264,2.264,0,0,1-.055-.527c-.018-.4-.041-.9-.068-1.512-.058-1.314-.072-3.218-.022-5.569s.2-5.15.475-8.249c.3-3.1.734-6.492,1.356-10.028C2.5,21.343,3.264,18.006,4.052,15c.81-3,1.63-5.684,2.4-7.906S7.889,3.084,8.4,1.872c.238-.569.433-1.031.586-1.4A2.286,2.286,0,0,1,9.217,0,2.248,2.248,0,0,1,9.07.509c-.132.373-.3.846-.5,1.426-.456,1.231-1.078,3.027-1.8,5.258S5.248,12.1,4.464,15.1c-.763,3.006-1.513,6.332-2.148,9.855C1.7,28.483,1.25,31.863.928,34.947.63,38.033.44,40.82.356,43.164S.229,47.408.232,48.721c-.008.616-.014,1.117-.019,1.513a2.366,2.366,0,0,1-.038.529" transform="translate(918.091 407.115)"/><path class="g" d="M11.671,0a10.529,10.529,0,0,1-1.536,1.685c-1,.993-2.411,2.327-4.025,3.742s-3.121,2.643-4.237,3.5A10.549,10.549,0,0,1,0,10.233,11.905,11.905,0,0,1,1.668,8.678l4.14-3.594,4.1-3.634A11.869,11.869,0,0,1,11.671,0" transform="translate(908.626 431.605)"/><path class="g" d="M10.883,15.639a18.222,18.222,0,0,1-1.636-2.266l-3.8-5.553-3.884-5.5A18.166,18.166,0,0,1,0,0,15.647,15.647,0,0,1,1.82,2.127c1.068,1.357,2.5,3.268,4,5.43s2.8,4.166,3.7,5.639a15.585,15.585,0,0,1,1.362,2.443" transform="translate(921.601 425.785)"/><path class="g" d="M18.334,0C18.4.11,14.354,2.836,9.293,6.09S.07,11.9,0,11.789,3.979,8.957,9.043,5.7,18.264-.1,18.334,0" transform="translate(907.766 410.547)"/><path class="g" d="M11.926,11.649A75.475,75.475,0,0,1,5.8,5.991,75.469,75.469,0,0,1,0,0,75.384,75.384,0,0,1,6.125,5.661a75.588,75.588,0,0,1,5.8,5.988" transform="translate(925.589 411.222)"/><path class="h" d="M50.25,13.264a2.177,2.177,0,0,1-.95.864,56.121,56.121,0,0,1-7.535,2.989.649.649,0,0,1-.125.039A56.536,56.536,0,0,1,27.479,19.7c-2.062.1-4.164.1-6.235.218-.054,0-.109.008-.156.008h-.007a23.046,23.046,0,0,0-7.31,1.424,27.339,27.339,0,0,0-3.277,1.643A17.151,17.151,0,0,1,3.48,25.143l-3.324.272-.046.008H.085L0,25.431c.008-.039.008-.085.016-.124,0-.008.007-.016.007-.024C1.16,17.32,3.589,8,10.2,3.463A19.181,19.181,0,0,1,16.449.692c.156-.039.3-.077.459-.109a27.686,27.686,0,0,1,13.132.467,43.279,43.279,0,0,1,6.422,2.336c.172.077.335.156.5.234A109.757,109.757,0,0,1,48.5,10.1c1.136.7,2.468,1.861,1.752,3.16" transform="translate(940.382 397.193)"/><path class="g" d="M50.25,9.545a3.469,3.469,0,0,1-.589-.274l-1.648-.863c-1.428-.751-3.485-1.86-6.084-3.106a56.879,56.879,0,0,0-9.418-3.63A31.085,31.085,0,0,0,20.306.684,20.859,20.859,0,0,0,9.179,5.462,24.749,24.749,0,0,0,3.385,13.6,68.13,68.13,0,0,0,.864,19.937C.608,20.664.4,21.246.245,21.69a3.342,3.342,0,0,1-.243.6,3.548,3.548,0,0,1,.155-.631c.135-.451.314-1.043.537-1.782a57.875,57.875,0,0,1,2.4-6.416A24.624,24.624,0,0,1,8.9,5.144,21.1,21.1,0,0,1,20.246.226a31.073,31.073,0,0,1,12.38,1.037,54.693,54.693,0,0,1,9.446,3.746C44.662,6.3,46.7,7.451,48.1,8.251l1.606.938a3.414,3.414,0,0,1,.544.356" transform="translate(940.46 400.483)"/><path class="g" d="M20.046,13.518c-.072.106-4.617-2.834-10.15-6.566S-.071.108,0,0,4.617,2.836,10.153,6.57s9.965,6.843,9.893,6.949" transform="translate(962.318 400.994)"/><path class="g" d="M7.165.041A10.8,10.8,0,0,1,3.618.752,10.777,10.777,0,0,1,0,.7,21.181,21.181,0,0,1,3.576.293,21.165,21.165,0,0,1,7.165.041" transform="translate(970.833 400.521)"/><path class="g" d="M3.391,0A12.189,12.189,0,0,1,1.9,2.984,12.223,12.223,0,0,1,.012,5.732,12.189,12.189,0,0,1,1.5,2.75,12.148,12.148,0,0,1,3.391,0" transform="translate(954.228 396.907)"/><path class="g" d="M13.829,9.781a12.081,12.081,0,0,1-2.188-1.186C10.328,7.8,8.554,6.63,6.658,5.254S3.09,2.575,1.889,1.622A13.471,13.471,0,0,1,0,0,13.08,13.08,0,0,1,2.086,1.361L6.929,4.88c1.889,1.372,3.626,2.575,4.89,3.44a14.808,14.808,0,0,1,2.01,1.46" transform="translate(947.863 407.409)"/><path class="h" d="M8.14,1.569C4.825.694.874,3.918.191,7.277s.577,6.8,2.052,9.891A50.436,50.436,0,0,0,15.951,35.1a33.893,33.893,0,0,0,20.959,7.716c-1.4-6.509.371-13.31-.41-19.921A26.149,26.149,0,0,0,29,7.524,26.15,26.15,0,0,0,13.549.176C11.433-.053,8.984-.385,8.14,1.569" transform="translate(937.362 435.82)"/><path class="g" d="M28.773,41.25a2.148,2.148,0,0,1-.472-.219,8.63,8.63,0,0,1-1.24-.833,12.929,12.929,0,0,1-3.273-4.377c-.529-1.026-1.119-2.14-1.7-3.374l-1.784-3.942a38.11,38.11,0,0,0-2.191-4.213,33.167,33.167,0,0,0-3.016-4.1c-2.27-2.666-4.7-4.972-6.816-7.175A46.807,46.807,0,0,1,3.09,6.78,22.856,22.856,0,0,1,.551,1.931,14.76,14.76,0,0,1,.108.509,2.2,2.2,0,0,1,0,0C.047-.012.234.677.718,1.866A25.009,25.009,0,0,0,3.359,6.6a49.321,49.321,0,0,0,5.232,6.123c2.12,2.18,4.569,4.48,6.862,7.173a32.749,32.749,0,0,1,3.05,4.164A37.377,37.377,0,0,1,20.7,28.329c.613,1.391,1.2,2.715,1.743,3.958.557,1.228,1.131,2.354,1.64,3.385a13.4,13.4,0,0,0,3.1,4.389c.969.835,1.624,1.144,1.6,1.189" transform="translate(945.499 437.388)"/><path class="g" d="M.017,14.737a9.906,9.906,0,0,1,.3-2.232c.26-1.365.685-3.239,1.259-5.281S2.771,3.363,3.262,2.063A9.929,9.929,0,0,1,4.168,0a12.145,12.145,0,0,1-.6,2.168C3.161,3.491,2.6,5.318,2.024,7.35S.979,11.234.639,12.576a12.088,12.088,0,0,1-.622,2.161" transform="translate(957.114 458.492)"/><path class="g" d="M15.916,3.607A13.7,13.7,0,0,1,13.58,3.07c-1.428-.373-3.4-.883-5.595-1.379S3.79.813,2.339.538A13.634,13.634,0,0,1,0,.022,11.283,11.283,0,0,1,2.392.216c1.468.193,3.489.529,5.7,1.025s4.175,1.06,5.584,1.515a11.242,11.242,0,0,1,2.245.85" transform="translate(957.728 453.646)"/><path class="g" d="M.014,17.17a13.621,13.621,0,0,1,.359-2.582c.291-1.582.755-3.757,1.375-6.134s1.28-4.5,1.8-6.025A13.608,13.608,0,0,1,4.5,0a15.662,15.662,0,0,1-.637,2.525C3.42,4.07,2.813,6.2,2.2,8.569s-1.131,4.524-1.5,6.086A15.717,15.717,0,0,1,.014,17.17" transform="translate(944.816 444.725)"/><path class="g" d="M18.435,1.981c-.014.127-4.151-.208-9.241-.748S-.014.153,0,.027,4.151.235,9.243.775s9.206,1.08,9.193,1.207" transform="translate(947.604 441.348)"/><path class="i" d="M0,2.2l7.627,36.75H36.768L45.253,0Z" transform="translate(908.747 488.289)"/><path class="j" d="M0,0H54.3l-.007,7.493H0Z" transform="translate(903.635 484.543)"/><path class="j" d="M0,0,4.156,5.71H39.18L44.136,0Z" transform="translate(908.747 524.38)"/><path class="k" d="M892.826,10.512C892.826,4.706,692.96,0,446.413,0S0,4.706,0,10.512,199.866,21.024,446.413,21.024s446.413-4.706,446.413-10.512" transform="translate(65.266 685.463)"/><path class="f" d="M.105,42.723C3.986,25.407,17.837,2.408,44.527.168s21.691,18.48,11.759,27.81C37.807,45.336-2.321,53.549.105,42.723" transform="translate(145.911 534.087)"/><path class="l" d="M128.225,19.232C123.746-2.046,102.842-1.3,88.657,1.313s-5.636,10.5-1.494,20.531c7.093,17.172-8.17,69.806-8.17,69.806-7.506,20.156-9.73,50.683-28.132,56.093s-50.862,0-50.862,0l4.251,55.609H107.811L114.13,76.917c4.663-11.022,17.8-40.093,14.1-57.685" transform="translate(461.819 426.98)"/><path class="l" d="M1.458,22.061,59.064,4.889,57.606,0,0,17.172Z" transform="translate(399.062 471.931)"/><path class="l" d="M16.32,39.02a4.084,4.084,0,0,0,3.793-5.587L7.876,2.578A4.081,4.081,0,1,0,.289,5.587L12.525,36.442A4.082,4.082,0,0,0,16.32,39.02" transform="translate(448.042 454.865)"/><path class="l" d="M7.651,32.481A7.635,7.635,0,0,0,9.84,32.16L67.446,14.988A7.652,7.652,0,1,0,63.074.321L5.468,17.494A7.654,7.654,0,0,0,7.651,32.481" transform="translate(376.481 471.535)"/><path class="l" d="M8.169,21.844C4.026,11.815-4.523,3.926,9.662,1.313S44.751-2.046,49.231,19.232,33.553,78.584,33.553,81.2,0,91.649,0,91.649s15.262-52.633,8.169-69.8" transform="translate(691.995 418.363)"/><path class="m" d="M10.386,95.075H148.678S187.335,61.007,129.1,27.038,17.115-5.347,4.423,12.338s5.963,82.737,5.963,82.737" transform="translate(213.825 542.866)"/><path class="m" d="M10.387,95.075H148.679S187.335,61.007,129.1,27.038,17.115-5.347,4.423,12.338s5.964,82.737,5.964,82.737" transform="translate(629.285 542.866)"/><path class="n" d="M264.925,106.861l-.564.661a.838.838,0,0,0-1.082.058c-10.179,9.579-11.087,30.531-11.125,36.721-.039,6.531-.039,29.631-.031,51.521H200.018A69.247,69.247,0,0,0,112.2,203.84q-2.458,2.435-4.626,5.043C42.42,208.1.015,207.434.015,207.434a88.9,88.9,0,0,1,.533-11.612c4.664-41.374,39.488-75.078,118.712-87.632,86.519-13.707,117.506-11.1,125.908-12.783S337,1.9,344.458.028s-83.614,91.087-86.6,101.91c-.618,2.249,2.11,3.83,7.071,4.923" transform="translate(132.478 388.081)"/><path class="o" d="M52.116,14.537q-18.79-.151-36.852-.32A68.252,68.252,0,0,0,10.2,8.5,69.2,69.2,0,0,0,0,0H52.1c0,4.977.008,9.892.012,14.537" transform="translate(332.496 583.904)"/><path class="o" d="M12.344.263a.843.843,0,0,1-.035,1.191c-6.542,6.155-10.5,19.429-10.6,35.507-.046,8.011-.035,41-.02,66.063-.564,0-1.124-.008-1.681-.016C0,77.941-.014,44.963.033,36.949.072,30.759.98,9.808,11.158.228a.841.841,0,0,1,1.186.035" transform="translate(384.599 495.433)"/><path class="n" d="M367.852,92.11c.4,5.653-65.232,8.64-158.818,10.028a69.626,69.626,0,0,0-15.5-14.506,69.247,69.247,0,0,0-87.813,8.018,68.551,68.551,0,0,0-6.492,7.412c-30.493.1-62.105.112-94,.046H3.547c.5-9.023.807-19.692.888-30.972C4.63,43.99,3.346,10.858.038.294A.848.848,0,0,1,0,.038q.853.005,1.712,0C93.935.05,246.61,0,257.642,0,315.721,0,361.02,64.478,367.168,88.261a21.4,21.4,0,0,1,.684,3.849" transform="translate(554.513 496.272)"/><path class="p" d="M337.452,0a69.353,69.353,0,0,0-30.175,54.037H30.182a69.044,69.044,0,0,0-14.919-39.82A68.137,68.137,0,0,0,10.2,8.5,69.151,69.151,0,0,0,0,0H53.786c0,4.985.008,9.9.012,14.552.008,8.656.012,16.369.015,21.779l0,7c4.746,1.963,56.685,1.889,154.441-.213,7.326-.158,12.2-.263,13.362-.266.279-.174,1.978-1.913,3.331-18.286.228-2.782.433-5.827.614-9.089.263-4.753.475-9.962.626-15.476Z" transform="translate(332.496 583.904)"/><path class="p" d="M198.609,46.211a9.763,9.763,0,0,1-9.592,7.828H30.187A68.992,68.992,0,0,0,15.493,14.508a68.058,68.058,0,0,0-5.291-6A69.044,69.044,0,0,0,0,0H167.734a26.617,26.617,0,0,1,5.9.632,19.05,19.05,0,0,1,9.362,4.962c3.1,3.063,5.163,7.363,5.835,12.883,2.284,18.758,5.705,16.345,8.377,20.443a9.626,9.626,0,0,1,1.4,7.29" transform="translate(748.051 583.902)"/><path class="l" d="M97.962,16.975a57.268,57.268,0,1,0-.4,80.988,57.268,57.268,0,0,0,.4-80.988" transform="translate(236.178 583.902)"/><path class="f" d="M45.657,91.313a45.445,45.445,0,0,1-25.528-7.8A45.788,45.788,0,0,1,3.588,63.429,45.6,45.6,0,0,1,7.8,20.13,45.788,45.788,0,0,1,27.885,3.588a45.6,45.6,0,0,1,43.3,4.21A45.791,45.791,0,0,1,87.725,27.886a45.6,45.6,0,0,1-4.21,43.3A45.79,45.79,0,0,1,63.428,87.726,45.369,45.369,0,0,1,45.657,91.313Zm.452-28.733h0l-.176.164c-4.606,4.3-15.83,14.783-20.564,19.36a41.758,41.758,0,0,0,39.714.473c-3.441-3.467-14.416-15.14-18.975-20ZM86.617,37.767c-4.427,2.347-18.68,9.418-24.6,12.348l-.707.511c.929,2.113,9.148,20.809,11.8,26.43.744-.651,1.349-1.209,1.9-1.757A41.745,41.745,0,0,0,86.617,37.767Zm-81.942.124a41.931,41.931,0,0,0,.988,19.643,41.5,41.5,0,0,0,10.35,17.474c.2.207.418.409.626.605l.009.009.036.034.008.008.01.01.032.03,0,0,.211.2c2.933-5.884,10.482-20.36,12.726-24.656C27.762,50.215,10.794,41.037,4.676,37.891ZM40.019,4.328A41.735,41.735,0,0,0,7.747,28.245c5.913.8,22.439,3.4,27.363,4.18l.012-.066.012-.07C35.508,30.211,38.819,11.781,40.019,4.328Zm10.52-.088c1.153,6.346,3.61,21.358,4.613,27.517l.014.085.024.145v0c.009.054.014.085.015.091l.117-.013c6.744-.817,23.008-2.8,28.353-3.589A41.631,41.631,0,0,0,50.539,4.24Z" transform="translate(247.789 595.513)"/><path class="l" d="M11.271,0A11.218,11.218,0,1,1,0,11.162,11.219,11.219,0,0,1,11.271,0" transform="translate(282.228 629.952)"/><path class="l" d="M97.963,16.975a57.268,57.268,0,1,0-.4,80.988,57.269,57.269,0,0,0,.4-80.988" transform="translate(651.627 583.902)"/><path class="f" d="M45.656,91.313a45.444,45.444,0,0,1-25.528-7.8A45.787,45.787,0,0,1,3.588,63.429,45.6,45.6,0,0,1,7.8,20.13,45.786,45.786,0,0,1,27.884,3.588a45.595,45.595,0,0,1,43.3,4.21A45.79,45.79,0,0,1,87.724,27.886a45.6,45.6,0,0,1-4.209,43.3A45.788,45.788,0,0,1,63.428,87.726,45.369,45.369,0,0,1,45.656,91.313Zm.453-28.732-.051.048c-3.63,3.386-15.851,14.8-20.689,19.477a41.757,41.757,0,0,0,39.714.473c-3.439-3.466-14.415-15.139-18.974-20ZM86.617,37.767c-4.647,2.462-20.006,10.074-24.6,12.348l-.706.511.033.075c1.529,3.476,9.28,21.084,11.764,26.356.752-.659,1.356-1.217,1.9-1.757A41.75,41.75,0,0,0,86.617,37.767Zm-81.942.124a41.942,41.942,0,0,0,.989,19.643,41.493,41.493,0,0,0,10.35,17.474c.236.238.482.47.679.656l.014.014.007.007.044.041.043.041.008.007.007.006.131.125,0,0c2.862-5.745,9.794-19.045,12.641-24.5l.085-.161C26.553,49.561,10.669,40.973,4.675,37.891ZM40.019,4.328h0A41.734,41.734,0,0,0,7.746,28.245c5.873.795,22.428,3.4,27.363,4.18l.005-.027.015-.084c.61-3.392,3.713-20.685,4.89-27.985Zm10.52-.088h0c1.246,6.853,4.087,24.29,4.644,27.716l.021.127.122-.015c6.739-.816,22.99-2.8,28.35-3.589A41.631,41.631,0,0,0,50.539,4.24Z" transform="translate(663.239 595.513)"/><path class="l" d="M11.27,0A11.218,11.218,0,1,1,0,11.162,11.218,11.218,0,0,1,11.27,0" transform="translate(697.679 629.952)"/><path class="q" d="M.841,66.9c-.022,0-.044,0-.066,0A.84.84,0,0,1,0,66C1.434,47.541,8.144,34.833,21.759,24.79,38.669,12.317,66.418,4.48,106.591.833c44.8-4.063,78.943,7.52,99.7,17.957C228.8,30.109,240.9,42.585,241.017,42.709a.84.84,0,0,1-1.213,1.162c-.118-.123-12.057-12.427-34.335-23.616C184.918,9.935,151.108-1.522,106.743,2.506,66.885,6.124,39.412,13.856,22.756,26.142,9.569,35.87,3.067,48.2,1.677,66.127a.84.84,0,0,1-.836.775" transform="translate(145.071 521.76)"/><path class="q" d="M171.629.877c-.023-.085-.046-.166-.074-.247a.838.838,0,0,0-1.638.247.826.826,0,0,0,.038.255c3.308,10.564,4.591,43.7,4.4,71.843-.035,5.341-.127,10.542-.263,15.5-.15,5.514-.363,10.723-.626,15.476-.182,3.261-.386,6.306-.615,9.089-1.352,16.372-3.052,18.111-3.33,18.286-1.162,0-6.036.108-13.362.266-97.756,2.1-149.694,2.175-154.441.213l0-7c0-5.41-.007-13.123-.015-21.779,0-4.648-.008-9.567-.012-14.552-.007-21.887-.007-44.983.03-51.51C1.809,20.882,5.77,7.608,12.312,1.453A.841.841,0,0,0,11.16.228C.982,9.807.074,30.759.035,36.949,0,43.48,0,66.58,0,88.47c0,4.977.008,9.892.012,14.537.007,8.663.012,16.38.015,21.794l0,7.361a1.068,1.068,0,0,0,.336.762c.637.626,2.017,1.974,42.846,1.974,6.291,0,13.517-.03,21.821-.1,33.437-.29,70.985-1.1,91.157-1.531,7.411-.163,12.308-.267,13.37-.267a1.842,1.842,0,0,0,1.484-.877c2.013-2.744,3.324-14.162,4.1-28.178.27-4.927.476-10.171.622-15.476.166-5.99.255-12.052.278-17.806.1-25.179-1-58.438-4.416-69.788" transform="translate(384.596 495.434)"/><path class="m" d="M0,46.991C38.076,44.838,97.989-4.436,110.867.324s-2.52,9.8,5.319,20.718,16.8,7.279,17.638,15.679S113.2,46.964,113.2,46.964Z" transform="translate(698.951 449.309)"/><path class="q" d="M50.394,1.68c0,.928-11.281,1.68-25.2,1.68S0,2.609,0,1.68,11.282,0,25.2,0s25.2.752,25.2,1.68" transform="translate(661.924 515.268)"/><path class="q" d="M75.964,133H.84a.84.84,0,0,1,0-1.68h74.4A115.237,115.237,0,0,1,86.5,97.992c8.372-15.776,24.369-34.92,53.041-36.533,15.169-.854,26.694-6.1,34.253-15.606,14.106-17.733,9.675-44.6,9.629-44.87A.84.84,0,0,1,185.083.7c.048.277,4.61,27.865-9.964,46.194-7.87,9.9-19.806,15.363-35.478,16.245-22.377,1.258-39.748,13.236-51.629,35.6A112.351,112.351,0,0,0,76.8,132.274a.84.84,0,0,1-.832.729" transform="translate(553.321 495.432)"/><path class="n" d="M11.447,0s105.49,5.055,113.105,7.64,12.365,56.145,8.888,92.931S108.709,143,108.709,143L.356,132.291s-1.145-93.963.67-105.473C4.376,5.58,11.447,0,11.447,0" transform="translate(385.956 494.942)"/><path class="q" d="M16.415,5.537c-1.717,2.1-8.636,6.347-9.688,6.395S.047,7.493,0,6.205,4.676-.094,7.492,0s8.924,5.535,8.924,5.535" transform="translate(385.5 490.649)"/><path class="n" d="M47.891,19.109a16.069,16.069,0,0,1-16.727,16C17.645,34.515,1.493,31.766.109,26.724-1.991,19.067,26.624.341,45.18,0a2.7,2.7,0,0,1,1.233.271,2.782,2.782,0,0,1,1.558,2.516Z" transform="translate(386.321 465.401)"/><path class="q" d="M50.394,1.68c0,.928-11.281,1.68-25.2,1.68S0,2.609,0,1.68,11.281,0,25.2,0s25.2.752,25.2,1.68" transform="translate(453.912 511.024)"/><path class="p" d="M140.291,0a69.505,69.505,0,0,0-9.709,8.018q-2.461,2.436-4.625,5.046A69.055,69.055,0,0,0,110.11,54.039H31.782A31.776,31.776,0,0,1,0,22.263V14.838A14.838,14.838,0,0,1,14.838,0Z" transform="translate(114.101 583.902)"/><path class="a" d="M8.2,18.213a.53.53,0,0,1-.276-.241l-3.78-6.965a.526.526,0,0,1,.924-.5l3.138,5.783c.3-1.227.749-3.163,1.094-5.1.656-3.681.569-9.2-1.3-9.982C6.848.716,5.618,1.486,4.188,2.375A11.3,11.3,0,0,1,.634,4.046a.526.526,0,0,1-.216-1.03A10.508,10.508,0,0,0,3.633,1.481C5.17.526,6.759-.46,8.414.233c2.986,1.254,2.4,8.464,1.928,11.136C9.765,14.6,8.908,17.825,8.9,17.857a.525.525,0,0,1-.446.386.515.515,0,0,1-.249-.03" transform="translate(700.467 348.463)"/><path class="r" d="M5.077,13.748,1.272,12.3A1.974,1.974,0,0,1,.129,9.756L3.355,1.273A1.971,1.971,0,0,1,5.9.13l3.8,1.447a1.971,1.971,0,0,1,1.144,2.546L7.623,12.605a1.974,1.974,0,0,1-2.546,1.143" transform="translate(701.375 364.488)"/><path class="f" d="M2.9,8.714C.023,7-1.993,1.036,3.258.1S12.131,4.781,9.9,7.49s-4.029,3.389-4,4.439a5.994,5.994,0,0,0,.972,3.694c.976,1.395-.617,1.533-.243,3.02s.713,3.151-.229,2.807S4.17,10.168,3.734,9.435,2.9,8.714,2.9,8.714" transform="translate(697.94 353.28)"/><path class="a" d="M2.49.213c1.05.424,1.672,1.342,1.385,2.05s-1.369.938-2.42.514S-.216,1.434.069.726,1.439-.211,2.49.213" transform="translate(701.201 356.956)"/><path class="s" d="M8.322,6.024c-.279-3.337,3.394-8.447,7.21-4.721s1.364,9.937-2.14,9.7-5.1-1.3-5.936-.664A5.984,5.984,0,0,0,5.02,13.277c-.566,1.605-1.606.391-2.6,1.561S.276,17.253.007,16.286,7.881,7.9,8.222,7.124s.1-1.1.1-1.1" transform="translate(685.448 350.103)"/><path class="t" d="M2.771,1.7c.267,1.1-.118,2.14-.859,2.32S.352,3.448.085,2.347.2.207.945.027,2.5.594,2.771,1.7" transform="translate(696.583 353.942)"/><path class="a" d="M5.416,3.919C3.774,3.294,1.255,2.18.127.869a.526.526,0,0,1,.8-.686C2.438,1.943,7.211,3.435,7.26,3.45a.526.526,0,0,1-.312,1.006c-.07-.022-.684-.214-1.531-.536" transform="translate(697.096 354.842)"/><path class="u" d="M31.292,40.206c-3.775,1.758-13.045,9.478-16.86,15.511A97.493,97.493,0,0,1,13.011,45.55c-1.132-12.559-.154-24.479.51-28.093C14.68,11.19-1.356,5.374.093,2.476S22.6-5.252,22.988,18.32c.139,8.431,3.516,15.754,8.3,21.887" transform="translate(702.176 343.679)"/><path class="h" d="M37.224,13.575V40.818a82.752,82.752,0,0,1-23.158-4.749C8.826,34.074,3.717,31.246,0,27.254,3.262,22.888,12.984,5.569,15.719.02L15.727,0a82.921,82.921,0,0,0,21.5,13.575" transform="translate(724.959 391.51)"/><path class="u" d="M24.192,41.748A15.555,15.555,0,0,0,25.835,46.5c-4.986,5.793-13.262,2.559-13.54,2.45a.013.013,0,0,1-.008,0c2.337-9.05-2.922-12.2-9.394-13.073-2.323-.313-2.9-2.063-2.686-4.3A18.993,18.993,0,0,1,1.1,27.686c1-3.1,2.446-6.148,2.5-7.272C3.724,17.9,2.313,18.675.381,18.772-1.176,18.849,2.483,13.4,3.4,7.43a15.889,15.889,0,0,0,.2-2.35,12.2,12.2,0,0,0-.12-1.959C3.04.018,4.856-.515,7.634.409c6.7,2.211,19,12.864,18.784,16.141-.306,4.637-2.4,12.493-2.666,19.321-.012.305-.02.6-.02.9a24.439,24.439,0,0,0,.46,4.981" transform="translate(745.649 342.551)"/><path class="v" d="M23.023,16.141c-.306,4.637-2.4,12.493-2.667,19.321-.011.305-.019.6-.019.9a7.226,7.226,0,0,1-1.472-5.726c.579-4.637,2.512-8.354,1.5-10.53s-6.279-5.267-8.6-7.091S8.146,6.384,7.122,5.4C6.167,4.478,3.249,7.315,0,7.021a15.988,15.988,0,0,0,.2-2.35A12.734,12.734,0,0,1,4.239,0c6.7,2.211,19,12.864,18.784,16.141" transform="translate(749.045 342.96)"/><path class="w" d="M26.291,74.871s-16.23,7.729-21.767,0-6.557-24.294.139-31.381,18.444-26.775,15.19-31.478C16.9,7.75,13.689,7.259,11.181,7.874a10.631,10.631,0,0,0-4.467,2.465L3.782,4.45A25.047,25.047,0,0,1,7.259,2.417C12.106.049,20.07-2.165,25.131,3.971c6.666,8.072-3.056,33.417-3.956,44.106S17.4,66.756,26.291,74.871" transform="translate(771.292 325.835)"/><path class="v" d="M13.548,4.749C8.563,10.542.286,7.307.008,7.2A.013.013,0,0,1,0,7.2C5.484,6.442,11.31,3.83,11.465,2.384A23.584,23.584,0,0,1,11.905,0a15.589,15.589,0,0,0,1.643,4.749" transform="translate(757.936 384.299)"/><path class="u" d="M47.816,3.188a22.022,22.022,0,0,1-.626,3.13c-1.325,5.267-4.591,15.488-8.648,27.609C32.3,52.568,24.186,75.7,18.367,92.208c-.139.391-.275.773-.409,1.155-1.577,4.463-2.972,8.4-4.093,11.593-.931,2.627-1.672,4.741-2.187,6.214-1.4.456-4.057,1.453-5,2.774C5.576,115.5,2.033,117.8,0,117.958a17.215,17.215,0,0,0,2.059-2.086C4.633,112.63,12.933,7.825,12.933,7.825S28.5,1.746,38.839.305c5.3-.741,9.228-.263,8.976,2.883" transform="translate(739.399 574.239)"/><path class="x" d="M18.087,0c-.487,1.387-.765,2.206-.8,2.342-.386,1.642-.907,9.988-.907,9.988l-2.087,0s.966-7.384-.483-6.125S1.642,12.485.192,12.33C-.96,12.2,3.314,9.513,6.41,6.789c2.033-.158,5.576-2.462,6.678-4.015.943-1.321,3.6-2.318,5-2.774" transform="translate(732.99 685.409)"/><path class="v" d="M13.864,0c-.931,2.627-1.673,4.741-2.187,6.214-1.4.456-4.057,1.453-5,2.774C5.576,10.541,2.033,12.844,0,13c5.251-1.638,5.344-4.254,8.176-6.789A82.749,82.749,0,0,0,13.864,0" transform="translate(739.4 679.195)"/><path class="v" d="M34.256,6.013c-1.325,5.267-4.591,15.488-8.648,27.61C19.367,52.264,11.252,75.39,5.433,91.9L0,7.52S15.569,1.442,25.905,0a32.8,32.8,0,0,1,8.351,6.013" transform="translate(752.333 574.545)"/><path class="g" d="M17.5,1.674C11.685,17.968.658,109.163,0,115.539H56.78a200.1,200.1,0,0,0-1.975-56.932C49.21,27.435,31.57,0,31.57,0L21.56,3.864Z" transform="translate(740.434 389.822)"/><path class="u" d="M57.7,23.215C54.2,25.932,45.424,33.761,42.742,37.478l-3.636-5.124c-4.343-6.106-8.4-11.717-11.879-15.855-3.246-3.868-5.985-6.457-7.983-6.986C15.454,8.508,10.917,7.685,7.2,6.9,1.639,5.733-2.082,4.644,1.276,3.137,9,3.4,16.86-3.173,29.87,1.977,38.353,5.332,48.659,16.87,57.7,23.215" transform="translate(685.053 417.018)"/><path class="h" d="M19.185,81.706a47.053,47.053,0,0,1-7.863-6.874A161.3,161.3,0,0,1,0,61.187c3.555-5.673,10.467-19.978,10.665-25,2.538,1,4.9,1.233,6.974.309C28.073,31.858,11.456,2.876,24.209.172S48.36,27.221,49.132,54.85,36.574,93.106,19.185,81.706" transform="translate(738.051 407.424)"/><path class="h" d="M21.717,4.328c-.2,5.023-7.11,19.329-10.665,25-.924,1.468-1.619,2.357-1.917,2.357C7.546,31.687,0,19.418,0,16.81a3.442,3.442,0,0,1,.8-1.6C3.477,11.5,12.249,3.668,15.755.951A5.441,5.441,0,0,1,17.2,0c.773.1,2.995,1.932,4.251,2.9a2.378,2.378,0,0,1,.271,1.43" transform="translate(726.999 439.282)"/><path class="g" d="M11.322,38.646A161.3,161.3,0,0,1,0,25C3.555,19.329,10.467,5.024,10.665,0c1.631,7.072-6.871,22.556-4.3,28.082,1.473,3.16,3.493,7.457,4.954,10.564" transform="translate(738.051 443.61)"/><path class="v" d="M18.595,0C15.089,2.717,6.317,10.545,3.636,14.263L0,9.139A9.245,9.245,0,0,0,2.84,10.3C5.008,10.519,10.6,2.462,18.595,0" transform="translate(724.159 440.233)"/><path class="v" d="M20.025,9.911c-3.246-3.868-5.985-6.457-7.983-6.986C8.251,1.92,3.714,1.1,0,.316,7.408.432,10.491-.608,13.54.56c2.434.927,5.02,6.028,6.484,9.351" transform="translate(692.256 423.606)"/><path class="h" d="M.5,2.549C7.856,3.9,13.671-.736,14.055.1s.932.644.274,1.868S3.851,13.5,1.382,14.4.5,2.549.5,2.549" transform="translate(757.43 388.946)"/><path class="f" d="M58.222,41.61A164.9,164.9,0,0,1,48.951,76.7H12.9S-4.263,27.243,1,0h56.78c2.99,14.259,2.35,28.95.437,41.61" transform="translate(739.431 505.36)"/><path class="u" d="M36.049,0S34.588,17.428,32.81,38.062c-1.7,19.785-3.7,42.518-4.988,55.66-.258,2.658-.49,4.927-.684,6.7-2.234,1.6-7.442,7.79-10.7,9.135.336-.352.66-.7.954-1.036a3.7,3.7,0,0,0,.239-1.889C17.454,93.339,2.334,16.43,0,0Z" transform="translate(752.333 582.065)"/><path class="x" d="M16.61,0c-.258,2.342-.4,3.814-.4,4.173V15.248H13.569V7.585S8.4,14.136.238,15.248c-1.268.174,2.817-3.15,5.676-6.113C9.168,7.79,14.376,1.6,16.61,0" transform="translate(762.861 682.483)"/><path class="v" d="M11.38,0c-.258,2.658-.49,4.927-.684,6.7C8.462,8.3,3.254,14.487,0,15.831c.336-.352.66-.7.954-1.035a3.7,3.7,0,0,0,.239-1.889c2.82-.561,4.247-2.269,6.074-3.969C8.524,7.767,10.294,3.114,11.38,0" transform="translate(768.775 675.787)"/><path class="v" d="M36.049,0S34.588,17.428,32.81,38.062C32.363,22.675,31.79,5.028,31.5,4.378,30.987,3.219,0,0,0,0Z" transform="translate(752.333 582.065)"/><path class="y" d="M57.217,41.61c-.828-13.385-2.609-29.376-6.411-32.529C44.044,3.478,0,0,0,0H56.78c2.99,14.259,2.35,28.95.437,41.61" transform="translate(740.435 505.36)"/><path class="w" d="M33.946,31.6c-4.51,7.988-9.147,10.433-10.306,8.374s.194-4.769-.258-7.794-3.606-6.036-3.864-6.947-1.944-1.1-1.944-1.1c-6.364,1.221-4.559-5.475-7.523-5.348s-3.927,3.582-6.89-.495S-3.924,5.711,8.055,1.975A42.494,42.494,0,0,1,18.2.062a25.127,25.127,0,0,1,9.266.885l6.484,8.115s.355,1.152.768,2.983c0,0,0,.012,0,.015,1.051,4.688,2.462,13.807-.773,19.541" transform="translate(744.61 328.658)"/><path class="u" d="M0,9.255C0,3.362,10.047-4.076,12.656,2.686S1.16,13.892,1.16,13.892Z" transform="translate(760.038 346.947)"/><path class="v" d="M.03,4.787C.761,2.022,5.778-1.444,7.275.633s-3.864.9-3.864,1.756S2.251,3.773,1.672,4.014-.212,5.7.03,4.787" transform="translate(762.182 350.884)"/><path class="f" d="M3.221,3.975A3.584,3.584,0,0,1,0,3.627,12.289,12.289,0,0,1,.579,1.094,13.54,13.54,0,0,0,5.658,0c.272-.146-.19,2.982-2.437,3.97" transform="translate(746.714 367.961)"/><path class="r" d="M15.75,9.061s.355,1.152.768,2.983c-1.383-4.436-1.962,2.01-2.476,4.069s-.676-6.99-1.577-8.857-4.8,1.45-6.99,2.126,3.706-4.9,3.35-6.183S2.484,0,0,.062A25.127,25.127,0,0,1,9.266.947Z" transform="translate(762.805 328.658)"/><path class="r" d="M2.933,7.922,0,2.033A25.064,25.064,0,0,1,3.478,0C2.485,1,.943,2.709,1.967,2.64c1.45-.1,4.371-.433,2.609.459s-1.377,2.678,0,2.319A7.608,7.608,0,0,1,7.4,5.456,10.631,10.631,0,0,0,2.933,7.922" transform="translate(775.073 328.252)"/><path class="f" d="M.011,1.087C-.138.379,1.262-.137,1.794.032S7.662,7.35,7.783,8.2A.91.91,0,0,1,6.5,9.2C5.924,8.871.011,1.087.011,1.087" transform="translate(772.059 328.517)"/><path class="h" d="M25.764,7.991C23.043,13.521,13.3,30.875,10.037,35.246c-.46.614-.788.974-.955,1C7.537,36.54.194,27.073,0,20.407a8.8,8.8,0,0,1,1.685-4.528C5.5,9.846,14.771,2.126,18.545.368,19.338,0,19.891-.108,20.1.12c2.392,2.658,6.086,5.506,6.376,6.183a6.8,6.8,0,0,1-.707,1.688" transform="translate(714.922 383.518)"/><path class="g" d="M14.065,36.049C8.826,34.055,3.717,31.226,0,27.235,3.261,22.868,12.984,5.549,15.719,0c-.282.754-9.358,24.924-9.911,28.247-.341,2.044,4.44,5.444,8.257,7.8" transform="translate(724.959 391.529)"/><path class="v" d="M18.281,0C14.506,1.758,5.236,9.478,1.421,15.511A97.493,97.493,0,0,1,0,5.344c.919,2,2.028,4.116,2.635,4.166C3.795,9.607,9.2,2.264,18.281,0" transform="translate(715.186 383.886)"/><path class="x" d="M3.869,116.3c3.475-1.071,7.169-2.287,10.943-3.608,21-7.348,70.434-14.108,72.979-22.784C92.536,73.74,75.98,0,75.98,0,74.718,14.684,70.6,54.562,44.525,75.724,32.015,85.876,11.875,98.993,0,106.859c1.27,1.578,3.675,7.167,3.869,9.44" transform="translate(508.797 395.81)"/><path class="u" d="M11.725,8.309c1.123-.284,2.311-.6,3.551-.939A39.052,39.052,0,0,1,12.419,0C5.727,4.454.59,8.047.026,9.633c-.422,1.18,4.322.547,11.7-1.325" transform="translate(489.978 506.908)"/><path class="z" d="M1.951,15.8C3.557,19.512,5.01,21.256,6.783,22c2.813,1.181,6.429-.151,12.747-.111,10.3.068,17.614,14.061,17.614,14.061l6.635,11.931c.12.119.234.233.333.333q.929,1.8,1.924,3.724c.013.021.022.042.034.063a27.875,27.875,0,0,0,3,.891A31.136,31.136,0,0,0,47.64,41.3c-2.03-6.9.077-21.726-1.186-25.08S38.6,16.4,37.03,11.566s-17.249.828-22.545.336S7.569.912,4.33.069-2.206,6.192,1.951,15.8" transform="translate(546.476 320.072)"/><path class="w" d="M0,0,2.258,4.057Q1.265,2.132.333.333C.233.232.12.118,0,0" transform="translate(590.256 367.955)"/><path class="u" d="M42.395,35.335c-.622.5-8.084,6.689-12.481,10.785a17.022,17.022,0,0,0-3.173,3.416c.008-.182.016-.347.02-.514C26.849,42.9,23.9,34.9,20.914,31.761l0-.008c-.073-.077-.15-.155-.22-.22a3.317,3.317,0,0,0-3.177-.7c-3.029.614-6.712,3.373-9,1.631a4.5,4.5,0,0,1-1.375-2,22.3,22.3,0,0,1-1.024-6.612,57.41,57.41,0,0,0-.456-7.091C4.851,12.95,1.315,15.1.244,13.495s1.662-2.523,2.091-5.456C2.6,6.18,1.515,3.669.573.654.515.473.46.295.406.113,3.22,1.292,6.833-.042,13.151,0c10.3.066,17.617,14.062,17.617,14.062L37.4,25.992c.119.119.231.235.332.332.618,1.2,1.264,2.442,1.924,3.725.012.022.023.042.035.061.209.409.425.819.637,1.236.665,1.287,1.353,2.62,2.064,3.988" transform="translate(552.855 341.962)"/><path class="v" d="M0,.112C.055.295.111.474.166.653A8.278,8.278,0,0,0,6.788,2.607c4.464-.5,9.552-1.464,10.846,1.484s3.45,7.411,8.734,8.01,3.754,4.618,3.587,5.717c-.131.852,4.843,5.966,7.041,8.176L30.362,14.062S23.043.068,12.747,0C6.429-.04,2.813,1.293,0,.112" transform="translate(553.259 341.962)"/><path class="v" d="M0,6.925a3.3,3.3,0,0,1,3.173.7c.071.069.148.145.218.224A4.293,4.293,0,0,1,4.58,5.383C6.4,3.482,6.251,0,6.251,0A10.513,10.513,0,0,1,0,6.925" transform="translate(570.378 365.871)"/><path d="M0,3.225A15.461,15.461,0,0,0,.7,4.842C1.808,7,8.925,19.276,8.925,19.276a12.111,12.111,0,0,0,3,.891A37.852,37.852,0,0,1,9.078,14.4C7.645,10.562,7.98,2.528,8.449,0A37.92,37.92,0,0,0,0,3.225" transform="translate(583.622 352.8)"/><path class="aa" d="M.169,60.915C.7,62.564,3.54,65.06,7.659,67.97c11.282,7.977,32.136,19.091,41.315,24.481h0l10.13-9.162C49.079,64.264,29.579,28.166,23.553,5.6c-.53-1.976-.953-3.85-1.259-5.6,0,0-24.552,53.407-22.125,60.915" transform="translate(615.732 588.59)"/><path class="x" d="M3.728,92.311c6.254,40.543,16.363,66.326,20.769,77.7l16.644.839c2.837-7.229,6.568-17.516,10.522-30.01A560.941,560.941,0,0,0,67.556,78.468c4.563-23.71,7.74-49.434,7.7-74.887L4.25,0s-9.2,36.045-.522,92.311" transform="translate(571.729 515.72)"/><path class="u" d="M0,11.558C.828,5.4,8.294-5.009,13.439,2.783S1.276,15.536,1.276,15.536Z" transform="translate(577.729 346.469)"/><path class="y" d="M0,72.86a.023.023,0,0,0,.005-.017c.024-.123.048-.246.076-.368a.124.124,0,0,1,.007-.04c1.228-8.711,8.584-29.537,14.8-39.6C21.52,22.092,23.622,0,23.622,0,21.695,5.973,13.754,23.668,11.9,22.493,9.936,21.251,6.774,14.45,6.6,12.066,6.134,19.331,2.3,39.448,0,72.86" transform="translate(572.965 379.98)"/><path class="ab" d="M5.5,7.207C4.525,8.93.627,14.057.145,11.925s.3-10.843,1.4-11.84S5.5,7.207,5.5,7.207" transform="translate(578.017 391.653)"/><path class="f" d="M.007,15.008c.177,2.384,3.338,9.186,5.3,10.428C7.244,26.663,15.654,8.03,17.08,2.949a3.63,3.63,0,0,0,.2-1.134C17.072.312,16.568-.431,15.691.26S.5,12.857.039,14.46a.035.035,0,0,1,0,.009,1.671,1.671,0,0,0-.031.539" transform="translate(579.556 377.038)"/><path class="ab" d="M6.2.034c-.208,2.932.808,28.9.675,31.555S0,54.725,0,54.725.046,39,1.116,30.191,5.524,0,5.524,0Z" transform="translate(572.826 402.193)"/><path class="aa" d="M3.7,136.473l71,3.581S80.517,88.139,54.451,37.966C47.646,24.866,35.348,5.322,24.531,0c-.059.218-.135.463-.224.733a.209.209,0,0,1,.049.007c1.457,7.645,10.365,15.517,6.272,26.388S20.6,30.5,19.684,39.868s1.176,14.016-3.548,15.439C11.485,56.707,2.612,64.652.773,73.169a.12.12,0,0,0-.007.039c-.028.123-.052.246-.076.368,0,0,0,.014-.005.017l-.052.769c-.007.137-.018.269-.024.4C-1.8,110.674,3.7,136.473,3.7,136.473" transform="translate(572.28 379.247)"/><path class="x" d="M0,72.435c1.839-8.516,10.712-16.461,15.363-17.861C20.088,53.15,18,48.5,18.911,39.134s6.851-1.87,10.944-12.74S25.041,7.653,23.584.007A.243.243,0,0,0,23.535,0s-2.1,22.092-8.736,32.834C8.584,42.9,1.228,63.724,0,72.435" transform="translate(573.053 379.98)"/><path class="x" d="M1.169,15.955C3.124,26.647,29.412,62.13,15.958,78.511,11.88,83.476,6.733,89.136,1.945,94.45c2.988,1.48,9.164,6.4,10.373,8.441,1.868-1.013,3.8-2.081,5.779-3.2,12.879-7.268,27.415-16.464,36.235-25.032,5.106-4.957,8.3-9.7,8.151-13.745-.289-8.083-8.906-19.768-19.283-30.668-3.626-3.812-7.467-7.524-11.242-10.953C22.506,10.708,13.465,3.889,9.23,1.789.368-2.615-1.609.75,1.169,15.955" transform="translate(603.166 406.061)"/><path class="x" d="M.333,8.833c1.105,1.89,4.686,4.614,6.766,5.813a4.272,4.272,0,0,0,1.387.611c1.251.064,8.207-4.606,9.732-5.561.205-.132.158-.417-.079-.82C16.93,6.839,10.754,1.915,7.766.435,6.993.046,6.429-.107,6.225.078A28.457,28.457,0,0,0,.093,7.452a1.46,1.46,0,0,0,.24,1.381" transform="translate(597.346 500.077)"/><path class="f" d="M3.341,1.756A1.671,1.671,0,1,1,1.756,0,1.671,1.671,0,0,1,3.341,1.756" transform="translate(608.487 507.631)"/><path class="aa" d="M0,0C2.988,1.48,9.164,6.4,10.373,8.441c1.868-1.013,3.8-2.081,5.779-3.2-2.078.529-4.146,1.036-4.7,1.11C10.221,6.515,4.447.906,0,0" transform="translate(605.112 500.512)"/><path class="v" d="M.007,7.089C.4,2.453,4.608-1.79,6.03.774S3.172,2.541,2.5,3.864-.131,8.716.007,7.089" transform="translate(581.218 351.53)"/><path class="v" d="M0,14.774C4.4,10.681,11.858,4.486,12.481,3.99Q11.415,1.936,10.417,0c.4,1.455.537,2.881-.088,3.589C9.287,4.769,3.655,10.842,0,14.774" transform="translate(582.767 373.308)"/><path class="aa" d="M20.269,22.335A38.1,38.1,0,0,1,13.26,18.6a35.5,35.5,0,0,1-5.875-5,30.206,30.206,0,0,1-4.549-6.17A18.092,18.092,0,0,1,.512,0,10.341,10.341,0,0,0,.045,4.135c.033.351.063.707.11,1.058L.374,6.23A12.838,12.838,0,0,0,.987,8.263a21.369,21.369,0,0,0,4.52,7.1,23.606,23.606,0,0,0,6.744,4.983,18.526,18.526,0,0,0,8.019,1.984" transform="translate(582.271 529.171)"/><path class="ab" d="M1.111,12.556c5.082.256,20.8.138,22.133-.016.285-.034,2.261-4.246,5.19-11.7L11.789,0c1.709,4.41,2.385,6.325,2,6.747C9.805,11.1-3.971,12.3,1.111,12.556" transform="translate(584.437 685.732)"/><path class="ab" d="M.82,26.558c.444-.026,14.1-12.341,15.362-13.9C16.513,12.245,14.044,7.42,10.13,0L0,9.162c2.745,1.61,4.445,2.705,4.534,3.056C5.029,14.161.375,26.584.82,26.558" transform="translate(664.71 671.881)"/><path class="x" d="M3.3,12.625c.527.346,5.615-1.009,6.833-1.837.177-.121.234-.451.19-.922C10.129,7.592,7.724,2,6.454.425c-.263-.33-.474-.486-.611-.4a56.015,56.015,0,0,0-5.778,3.9c-.089.09-.084.357-.012.742a39.033,39.033,0,0,0,2.857,7.37,2.228,2.228,0,0,0,.389.59" transform="translate(502.342 502.243)"/><path class="aa" d="M3.869,9.44c3.475-1.071,7.169-2.287,10.943-3.608-3.739.523-7.679,1.083-8.436,1.224C4.873,7.331,3.573,3.874,0,0,1.27,1.578,3.675,7.167,3.869,9.44" transform="translate(508.797 502.669)"/><path class="f" d="M2.112.568A1.131,1.131,0,1,1,.568.15,1.13,1.13,0,0,1,2.112.568" transform="translate(509.081 510.625)"/><path class="v" d="M0,8.309c1.123-.284,2.311-.6,3.551-.939A39.052,39.052,0,0,1,.694,0C-.059,1.555,2.261,6.159,1.2,7.216c-.309.307-.742.7-1.2,1.093" transform="translate(501.702 506.908)"/><path class="ac" d="M0,11.886,2.226,12c.19-2.716,1.592-6.591,4.219-8.678a5.519,5.519,0,0,1,3.839-1.295c3.2.193,7.046,3.382,7.316,11.738l2.229-.075c-.148-4.6-1.287-8.155-3.387-10.573a8.762,8.762,0,0,0-5.992-3.1,7.939,7.939,0,0,0-5.47,1.8C1.871,4.281.219,8.765,0,11.886" transform="translate(583.392 515.966)"/><path class="ad" d="M1.03,4.3,0,20.336c-.12,1.865,65.317,5.871,65.506,2.93L66.535,7.225A4.217,4.217,0,0,0,65.276,3.97a5.161,5.161,0,0,0-3.444-1.481L6.312.006a5.243,5.243,0,0,0-4.4,1.965A4.261,4.261,0,0,0,1.03,4.3" transform="translate(559.419 524.655)"/><path class="ac" d="M1.038,0,.008,16.039a4.182,4.182,0,0,0,1.035,3.015,5.112,5.112,0,0,0,3.668,1.721l55.52,2.483a5.361,5.361,0,0,0,3.409-1.008,4.428,4.428,0,0,0,1.874-3.282L66.544,2.93C66.355,5.871.918,1.865,1.038,0" transform="translate(558.381 544.991)"/><path class="f" d="M1.2,4.223l10.19.456a1.381,1.381,0,0,0,.794-.2,1.144,1.144,0,0,0,.556-.891l.123-1.916a1.093,1.093,0,0,0-.435-.933,1.342,1.342,0,0,0-.767-.278L1.475,0A1.374,1.374,0,0,0,.594.265,1.128,1.128,0,0,0,.125,1.1L0,3.013a1.087,1.087,0,0,0,.382.89,1.334,1.334,0,0,0,.82.32" transform="translate(587.032 545.987)"/><path class="u" d="M4.32,10.291c.872-.341,3.013-1.314,6.034-2.789,1.04-.506,2.18-1.073,3.409-1.689C11.682,4.614,8.1,1.89,7,0,.118,8.032-3.275,13.284,4.32,10.291" transform="translate(590.682 508.91)"/><path class="v" d="M3.919,6.507a2.791,2.791,0,0,1-.556,1C4.4,7,5.544,6.429,6.772,5.813,4.692,4.614,1.112,1.89.007,0c-.2,2.365,3.972,5.752,3.912,6.507" transform="translate(597.672 508.91)"/><path class="f" d="M8.049,7.794c-.889,2.018-4.591,2.523-7.025,2.632A22.323,22.323,0,0,1,0,3.814,11.867,11.867,0,0,0,8.049,0s1.353,4.722,0,7.794" transform="translate(558.972 361.999)"/><path class="a" d="M0,102.04H252.856V0H0Z" transform="translate(129.455 58.919)"/><path class="c" d="M0,90.826H241.643V0H0Z" transform="translate(135.061 64.526)"/><path class="f" d="M0,65.316H65.317V0H0Z" transform="translate(159.59 77.281)"/><path class="f" d="M0,6.728H108.487V0H0Z" transform="translate(243.688 77.281)"/><path class="f" d="M0,3.364H108.487V0H0Z" transform="translate(243.688 139.233)"/><path class="f" d="M0,10.932H78.211V0H0Z" transform="translate(258.826 87.653)"/><path class="a" d="M0,80.662H78.216V0H0Z" transform="translate(11.018 90.349)"/><path class="c" d="M0,71.391H69.226V0H0Z" transform="translate(15.513 94.985)"/><path class="f" d="M0,57.678S23.4,17.785,23.767,17.785s21.709,15.7,21.709,15.7L69.226,0V57.678Z" transform="translate(15.513 108.698)"/><path class="b" d="M0,8.095A8.095,8.095,0,1,0,8.094,0,8.095,8.095,0,0,0,0,8.095" transform="translate(34.4 100.604)"/><path class="f" d="M24.76,7.143l2.354-2.279c-.536.506-1.049.984-1.544,1.438.469-.48.96-.977,1.481-1.5L24.542,7.235C11.994,18.48,13.108,11.654,0,0,11.223,13.479,17.965,12.7,6.288,24.907L3.767,27.348c.537-.506,1.05-.982,1.546-1.434-.469.479-.962.974-1.484,1.492l2.343-2.269c12.777-11.411,11.9-4.259,26.4,8.818-12.6-14.91-19.661-14.382-7.809-26.813" transform="translate(412.309 451.008)"/><path class="f" d="M24.76,7.143l2.354-2.279c-.536.506-1.048.983-1.543,1.438.469-.48.959-.977,1.481-1.5L24.542,7.235C11.994,18.48,13.108,11.654,0,0,11.223,13.479,17.965,12.7,6.288,24.907L3.767,27.348c.537-.506,1.051-.982,1.547-1.435-.469.479-.962.975-1.484,1.492l2.343-2.268c12.777-11.411,11.9-4.259,26.4,8.818-12.6-14.91-19.66-14.382-7.809-26.813" transform="translate(234.678 494.171)"/><path class="f" d="M24.76,7.143l2.354-2.279c-.536.506-1.048.983-1.543,1.438.469-.48.96-.977,1.481-1.5L24.542,7.235C11.994,18.48,13.108,11.654,0,0,11.223,13.479,17.965,12.7,6.288,24.907L3.767,27.348c.537-.506,1.051-.982,1.547-1.435-.469.479-.962.975-1.484,1.492l2.343-2.268c12.777-11.411,11.9-4.259,26.4,8.818-12.6-14.91-19.66-14.382-7.809-26.813" transform="translate(873.426 559.871)"/><path class="f" d="M24.76,7.143l2.354-2.279c-.536.506-1.048.984-1.543,1.438.469-.48.959-.977,1.481-1.5L24.542,7.235C11.994,18.48,13.108,11.654,0,0,11.223,13.479,17.965,12.7,6.288,24.907L3.767,27.348c.537-.506,1.051-.982,1.547-1.434-.469.479-.962.974-1.484,1.492l2.343-2.269c12.777-11.411,11.9-4.259,26.4,8.818-12.6-14.91-19.66-14.382-7.809-26.813" transform="translate(331.24 563.202)"/><path class="aa" d="M146.881,0,136.335,57.5c-1.477,7.734-6.337,17.14-13,26.56-15.522,21.95-40.828,43.968-55.937,45.028-18.056,1.269-34.79-59.2-42.442-80.572-1.5-4.181-2.644-6.867-3.39-7.3C17.117,38.616.682,41.1,0,41.207L40.506,32.12s2.436,4.265,6.06,9.95C54.009,53.74,66.456,71.395,73.08,70.376,82.929,68.861,115.5,0,115.5,0Z" transform="translate(0.622 528.335)"/><path class="aa" d="M83.1,134.074c-10.723,18.14-53.786,42.373-69.054,53.059L0,172.845C10.143,160.652,31.272,133.282,40.582,99.9a119.047,119.047,0,0,0,4.571-31.158c.186-26.192-1.162-42.672-2.719-52.9C40.506,3.189,38.26.091,38.192,0L99.147,21.226C109.2,69.308,96.2,111.919,83.1,134.074" transform="translate(83.376 512.495)"/><path class="ac" d="M0,5.776c11.174,5.208,33.048,3.977,35.794,3.5S37.877.663,37.877.663L1.231,0Z" transform="translate(128.529 526.058)"/><path class="y" d="M0,92.549c5.005,1.731,23.863,4.293,34.594,0S56.058,6.331,49.493,1.967,19.05,1.644,17.1,3.159,0,92.549,0,92.549" transform="translate(131.023 435.458)"/><path class="w" d="M0,11.652l18.5,7.2,8.6-10.8L22.224,1.56,15.53,0,4.924,2.246,1.066,7.138Z" transform="translate(147.058 417.432)"/><path class="x" d="M0,4.475c.11,1.382,5.242,13.257,6.6,14.52s9.437-11.363,8.173-14.52S8.207-.828,5.05.308A11.244,11.244,0,0,0,0,4.475" transform="translate(153.118 437.425)"/><path class="ae" d="M75.961,45.226,62.9,151.471s-1.895,7.671-3.154,9.6-25.379,10.544-27.4,10.291.757-4.043,5.632-17.425,6.743-59.342,5.48-68.179S18.71,76.411,6.342,51.665C-2.167,34.647-.288,13.688,1.631,0l.011.005a.191.191,0,0,1,.033.011c4.544,1.518,15.22,4.06,18.517,4.049,1.093,4.121,2.283,8.245,3.561,12.2,4.185,12.988,9.33,24.205,15.164,27.7,15.4,9.214,23.731,8.079,37.045,1.26" transform="translate(72.161 375.84)"/><path class="ae" d="M72.413,53.616C65.974,77.48,52.148,79.94,40.783,102.288s-13.193,71.464-13.95,77.147.189,11.55-3.663,9.279-12.434-3.6-16.853-2.022S-.058,186.376,0,185.022l.886-6.348,5.238-35.1,7.839-26.895S22.226,94.145,17.491,80.7C12.9,67.673,6.236,64.742,5.824,64.57c.757.194,24,5.96,37.043-13.32C51.4,38.639,54.832,17.123,55.925,1.233A62.79,62.79,0,0,0,70.857,0c.742,3.865,1.633,8.644,2.379,13.936,1.7,12.105,2.622,26.911-.824,39.68" transform="translate(160.185 352.868)"/><path class="f" d="M4.545,3.693A9.568,9.568,0,0,0,0,1.7V22.821S9.438,13.4,11.331,13.493,24.052,24.62,24.052,24.62L23.673,0,19.412,2.651Z" transform="translate(148.92 424.571)"/><path class="a" d="M28.78,0C15.117,3.22,3.626,20.075,2.663,26.514s8.82,5.114,8.947,11.742S-1.711,50.188.183,53.028,10.22,63.065,11.167,76.7s-5.24,41.791-5.24,41.791A9.309,9.309,0,0,0,9.336,114.2c1.389-3.156,15.182-83.519,14.614-90.431s-.379-17.992.757-19.981A13.943,13.943,0,0,1,28.78,0" transform="translate(125.979 418.416)"/><path class="a" d="M6.121,0C19.247,4.972,28.446,23.18,28.562,29.69s-9.411,3.921-10.4,10.477,11.653,13.565,9.4,16.134S11.81,64.762,9.1,78.159.32,120.46.32,120.46.258,118.876,0,115.372c-.248-3.439,9.331-78.065,10.8-84.845S10.532,6.406,9.664,4.286A13.943,13.943,0,0,0,6.121,0" transform="translate(159.868 417.432)"/><path class="af" d="M0,0C3.5,9,3.125,24.146,3.125,24.146s7.244,5.681,7.528,8.617c0,0,4.479-8.4,7.339-9.659,0,0,.095-14.677,2.368-18.086S0,0,0,0" transform="translate(149.456 404.117)"/><path class="x" d="M80.174,79.369,35.425,98.338a3.122,3.122,0,0,1-2.9-.31A4.2,4.2,0,0,1,30.916,96.1L.348,23.988a4.079,4.079,0,0,1-.054-3.171A3,3,0,0,1,1.878,19.2L46.627.227a3.152,3.152,0,0,1,3.035.4,4.231,4.231,0,0,1,1.474,1.837L81.7,74.575a4.116,4.116,0,0,1,.127,2.986,3.033,3.033,0,0,1-1.655,1.808" transform="translate(62.688 279.982)"/><path class="f" d="M74.637,70.042,29.69,89.095,0,19.052,44.947,0Z" transform="translate(66.669 285.364)"/><path class="aa" d="M4.45,18.87h0a2.4,2.4,0,0,1-2.11-1.533L.216,12.326A2.232,2.232,0,0,1,1.168,9.34L7.136,6.811a6.5,6.5,0,0,1,.407-3.879A4.89,4.89,0,0,1,10.1.373,4.713,4.713,0,0,1,11.949,0a6.033,6.033,0,0,1,4.839,2.719l5.663-2.4a1.782,1.782,0,0,1,.7-.141A2.4,2.4,0,0,1,25.26,1.711l2.124,5.01a2.233,2.233,0,0,1-.952,2.986L5.148,18.729A1.782,1.782,0,0,1,4.45,18.87Zm7.811-15.7a2.287,2.287,0,0,0-.9.181,2.863,2.863,0,0,0-1.221,3.83,3.075,3.075,0,0,0,2.705,1.967,2.287,2.287,0,0,0,.9-.181A2.433,2.433,0,0,0,15.1,7.424a3.3,3.3,0,0,0-.136-2.285A3.073,3.073,0,0,0,12.261,3.173Z" transform="translate(74.228 282.735)"/><path class="aa" d="M4.45,18.87a2.4,2.4,0,0,1-2.11-1.533L.217,12.326a2.554,2.554,0,0,1-.049-1.94,1.879,1.879,0,0,1,1-1.046l5.968-2.53a6.5,6.5,0,0,1,.408-3.879A4.891,4.891,0,0,1,10.1.373,4.712,4.712,0,0,1,11.949,0a6.033,6.033,0,0,1,4.839,2.72l5.664-2.4a1.778,1.778,0,0,1,.7-.141A2.4,2.4,0,0,1,25.26,1.711l2.124,5.01a2.232,2.232,0,0,1-.953,2.986L5.148,18.729A1.781,1.781,0,0,1,4.45,18.87Zm7.812-15.7a2.286,2.286,0,0,0-.9.181A2.433,2.433,0,0,0,10.007,4.9a3.3,3.3,0,0,0,.136,2.285,3.075,3.075,0,0,0,2.705,1.967,2.286,2.286,0,0,0,.9-.181A2.433,2.433,0,0,0,15.1,7.425a3.3,3.3,0,0,0-.136-2.285A3.074,3.074,0,0,0,12.262,3.173Z" transform="translate(73.861 281.871)"/><path class="y" d="M8.523,10.264l-2.165.918A3.484,3.484,0,0,1,1.791,9.334L.277,5.76A3.483,3.483,0,0,1,2.124,1.194L4.29.277A3.482,3.482,0,0,1,8.856,2.124L10.371,5.7a3.484,3.484,0,0,1-1.848,4.566" transform="translate(77.264 308.689)"/><path class="y" d="M26.162,1.714.727,12.5,0,10.781,25.435,0Z" transform="translate(88.454 298.473)"/><path class="y" d="M12.679,1,.425,6.2,0,5.194,12.253,0Z" transform="translate(89.953 307.597)"/><path class="y" d="M37.393,1.714.726,17.257,0,15.543,36.667,0Z" transform="translate(87.074 325.436)"/><path class="y" d="M21.461,1.622.687,10.428,0,8.806,20.773,0Z" transform="translate(92.127 321.98)"/><path class="y" d="M29.868,4.151,1.76,16.066,0,11.915,28.108,0Z" transform="translate(85.618 313.72)"/><path class="y" d="M37.394,1.714.727,17.257,0,15.543,36.667,0Z" transform="translate(89.243 330.554)"/><path class="g" d="M0,23.418Q1.414,24,2.8,24.623c.928.408,1.844.837,2.757,1.272,1.835.851,3.638,1.758,5.438,2.667s3.582,1.855,5.352,2.815,3.534,1.934,5.284,2.929l-2.486,1.476c-.166-2.975-.272-5.952-.357-8.93s-.12-5.957-.1-8.939.074-5.964.2-8.95.3-5.972.637-8.965c.548,2.962.919,5.929,1.27,8.9s.608,5.94.833,8.913.392,5.948.533,8.924c.126,2.976.231,5.953.276,8.933v.063a1.631,1.631,0,0,1-2.487,1.413q-2.571-1.585-5.109-3.224c-1.695-1.09-3.372-2.208-5.043-3.338S6.471,28.3,4.842,27.094c-.82-.59-1.636-1.187-2.441-1.8S.791,24.059,0,23.418" transform="translate(98.911 319.709)"/><path class="ag" d="M1.976,12.315C-1.43,4.5-.444-.276,5.02.012s5.642,15.8.694,15.026-3.738-2.724-3.738-2.724" transform="translate(160.012 363.48)"/><path class="ag" d="M11.994,1.178C3.851-1.331-.789.183.111,5.581s16.334,3.835,15.009-.994-3.125-3.409-3.125-3.409" transform="translate(124.566 387.994)"/><path class="af" d="M7.117.552C3.33-.142-1-.458.2,1.309S8.947,3.046,8.947,3.046Z" transform="translate(128.641 390.75)"/><path class="af" d="M0,6.98C-.033,3.13.4-1.185,1.933.3s.211,8.911.211,8.911Z" transform="translate(163.313 368.728)"/><path class="ag" d="M31.021,49.772C15,46.515,7.109,34.235.651,26.917c-1.137-6.352-.86-13.155,1.424-11.961,2.781,1.454,2.337,5.113,3.1,1.769S9.715.562,20.257.059a45.861,45.861,0,0,1,5.712.064c4.485,6.11,7.916,13.453,10.45,18.211,5.4,10.132,11.837,34.942-5.4,31.438" transform="translate(132.166 362.11)"/><path class="z" d="M38.158,10.819a45.861,45.861,0,0,0-5.712-.064c-10.541.5-14.329,13.321-15.086,16.666s-.315-.315-3.095-1.769c-2.284-1.194-2.561,5.61-1.424,11.962q-.734-.836-1.447-1.576C8.553,33.1,2.967,29.883.6,25.147s2.935-7.67,4.45-9S3.63,3.652,18.686.338c7.988-1.758,14.4,3.571,19.473,10.48" transform="translate(119.976 351.414)"/><path class="f" d="M0,6.632C4.735,6.254,12.436-.185,13.383,0s6.25,10.921,3.03,15.151S3.724,12.5,0,6.632" transform="translate(153.56 391.203)"/><path class="ag" d="M.016,31.454a16.168,16.168,0,0,0,.1-2.016C.027,27.1,0,23.007,0,18.6,0,9.906.113,0,.113,0S6.753,15.666,7.235,16.8,7.943-.485,8.83,6.837c.371,3.053,2.428,15.807,5.817,30.308Z" transform="translate(75.353 333.298)"/><path class="ag" d="M16.933,20.065c-1.586,3.963-3.346,13.534-3.214,20.661A86.686,86.686,0,0,0,.808,41.91a69.52,69.52,0,0,0-.291-7.957q-.056-.444-.108-.945C-.513,24.224-.646,2.918,8.6.242c9.594-2.781,2.4,19.317,4.167,18.94s5.93-3.537,4.165.883" transform="translate(215.727 301.386)"/><path class="x" d="M9.586.5S.81,43.306.085,49.619s3.44,18.56,4.2,19.317,7.457-17.171,7.453-19.317S12.995,0,12.995,0Z" transform="translate(148.835 451.748)"/><path class="f" d="M13.793,8.8,2.353,8.231A2.473,2.473,0,0,1,0,5.637L.164,2.353A2.476,2.476,0,0,1,2.758,0L14.2.568a2.475,2.475,0,0,1,2.35,2.594l-.162,3.285A2.475,2.475,0,0,1,13.793,8.8" transform="translate(139.423 528.334)"/><path class="n" d="M40.506,0s2.436,4.265,6.06,9.95L24.957,16.393c-1.5-4.181-2.644-6.867-3.39-7.3C17.117,6.5.681,8.981,0,9.087Z" transform="translate(0.622 560.455)"/><path class="n" d="M14.283,19.18c0,4.541,4.151,20.954,2.386,20.954S-.251,8.317,0,6.8c.053-.311,2.219-2.7,5.632-6.8L19.684,14.287c-3.383,2.368-5.4,4.068-5.4,4.894" transform="translate(77.741 685.34)"/><path class="ae" d="M21.585,15.241c-.027.194-.385.28-.987.283-3.308.011-14.041-2.546-18.561-4.065-1.314-.444-2.1-.8-2.033-.974C.365,9.589,1.577.3,1.754.079s1.481.088,1.86.293l14.63,5.691a1.491,1.491,0,0,1,.964.385c.446.4,2.6,7.225,2.376,8.794" transform="translate(71.755 364.381)"/><path class="n" d="M22.078,16.254c-1.265-2.52-3.4-6.514-4.95-8C14.867,6.079.872.358,0,0,4.544,1.518,15.22,4.06,18.517,4.049c1.093,4.121,2.282,8.245,3.561,12.2" transform="translate(73.835 375.856)"/><path class="f" d="M0,1.884A1.884,1.884,0,1,0,1.884,0,1.884,1.884,0,0,0,0,1.884" transform="translate(87.373 374.463)"/><path class="ae" d="M18.843,10.191c-.029.18-.47.374-1.2.568A62.822,62.822,0,0,1,2.713,11.993C1.076,11.871,0,11.583,0,11.066,0,8.912.605,2.048.605,2.048c.024-.28,1.029-.579,2.533-.862A86.879,86.879,0,0,1,16.049,0c.89.014,1.437.084,1.448.229.067.808,1.547,8.749,1.345,9.96" transform="translate(213.397 342.109)"/><path class="n" d="M17.311,13.936C15.869,9.863,13.86,4.324,13.438,3.874,12.765,3.155,0,1.233,0,1.233A62.822,62.822,0,0,0,14.932,0c.742,3.866,1.634,8.644,2.379,13.936" transform="translate(216.11 352.868)"/><path class="f" d="M0,1.289A1.289,1.289,0,1,0,1.29,0,1.289,1.289,0,0,0,0,1.289" transform="translate(214.821 349.429)"/><path class="af" d="M13.308,7.718A86.782,86.782,0,0,0,.4,8.9,69.179,69.179,0,0,0,.107.945Q.051.5,0,0C.772,2.342,1.87,4.711,3.249,5.255A80.848,80.848,0,0,0,13.308,7.718" transform="translate(216.138 334.394)"/><path class="af" d="M.016,12.854a16.168,16.168,0,0,0,.1-2.016C.027,8.5,0,4.407,0,0,3.628,8.563,14.646,18.545,14.646,18.545Z" transform="translate(75.353 351.899)"/><path class="k" d="M208,5.256C208,2.353,161.435,0,104,0S0,2.353,0,5.256s46.561,5.256,104,5.256S208,8.159,208,5.256" transform="translate(13.377 731.821)"/></g></svg>