<svg xmlns="http://www.w3.org/2000/svg" width="103.873" height="103.831" viewBox="0 0 103.873 103.831"><defs><style>.a{fill:#7ecae1;}</style></defs><g transform="translate(-11 -11)"><g transform="translate(11 11)"><path class="a" d="M95.527,30.346C94.086,25.388,87.114,11,69.845,11,53.655,11,46.493,24.074,44.9,28.164a25.17,25.17,0,0,0-8.328-1.4A25.768,25.768,0,0,0,36.6,78.3H50.074a4.344,4.344,0,0,0,0-8.688H36.6a17.058,17.058,0,0,1,0-34.116,16.784,16.784,0,0,1,8.857,2.522c3.433,2.1,6,.085,6.527-3.009a18.107,18.107,0,0,1,35.769,0,4.33,4.33,0,0,0,4,3.645,15.518,15.518,0,0,1-.932,31H77.558a4.344,4.344,0,0,0,0,8.688H90.823a24.248,24.248,0,0,0,4.7-48Z" transform="translate(-11 -11)"/><path class="a" d="M215.587,220.329a4.275,4.275,0,0,0-6.06.424l-2.776,3.2v-50.03a4.3,4.3,0,1,0-8.6,0v50.008l-2.755-3.178a4.277,4.277,0,0,0-6.06-.424,4.366,4.366,0,0,0-.424,6.1l10.3,11.909a4.256,4.256,0,0,0,3.242,1.483,4.329,4.329,0,0,0,3.242-1.483l10.3-11.909A4.344,4.344,0,0,0,215.587,220.329Z" transform="translate(-150.385 -135.993)"/></g></g></svg>