<svg xmlns="http://www.w3.org/2000/svg" width="94.507" height="97.282" viewBox="0 0 94.507 97.282"><defs><style>.a{fill:#7ecae1;}</style></defs><g transform="translate(-6.85)"><g transform="translate(6.85)"><path class="a" d="M188.759,47.415V2.734a2.734,2.734,0,0,0-5.469,0V47.415a13.885,13.885,0,0,0,0,27.222v19.89a2.734,2.734,0,1,0,5.469,0V74.637a13.885,13.885,0,0,0,0-27.222Zm-2.734,22.016a8.406,8.406,0,1,1,8.406-8.406A8.411,8.411,0,0,1,186.024,69.432Z" transform="translate(-138.67)"/><path class="a" d="M23.459,24.487V2.734a2.734,2.734,0,0,0-5.469,0V24.487a13.885,13.885,0,0,0,0,27.222V94.527a2.734,2.734,0,1,0,5.469,0V51.689a13.873,13.873,0,0,0,0-27.2ZM20.724,46.5A8.406,8.406,0,1,1,29.13,38.1,8.411,8.411,0,0,1,20.724,46.5Z" transform="translate(-6.85)"/><path class="a" d="M353.059,24.487V2.734a2.734,2.734,0,1,0-5.469,0V24.487a13.885,13.885,0,0,0,0,27.222V94.547a2.734,2.734,0,1,0,5.469,0V51.689a13.873,13.873,0,0,0,0-27.2ZM350.324,46.5A8.406,8.406,0,1,1,358.73,38.1,8.411,8.411,0,0,1,350.324,46.5Z" transform="translate(-269.692)"/></g></g></svg>