<svg xmlns="http://www.w3.org/2000/svg" width="96.456" height="96.456" viewBox="0 0 96.456 96.456"><defs><style>.a{fill:#7ecae1;}</style></defs><g transform="translate(-11 -11)"><g transform="translate(11 11)"><path class="a" d="M72.961,158.337a3.984,3.984,0,0,0,5.59-1.043l15.2-22.2L109.831,150.6a3.974,3.974,0,0,0,3.189,1.1,4.086,4.086,0,0,0,2.913-1.693l26.673-38.248.965,12.8a4.017,4.017,0,0,0,8.012-.61l-1.693-22.5a4,4,0,0,0-4.311-3.7l-22.5,1.693a4.017,4.017,0,0,0,.61,8.012l12.8-.965-24.449,35.039L95.914,125.975a3.931,3.931,0,0,0-3.189-1.1,4,4,0,0,0-2.913,1.732L71.918,152.747A4.02,4.02,0,0,0,72.961,158.337Z" transform="translate(-59.359 -80.661)"/><path class="a" d="M103.44,99.424H19.031V15.016a4.016,4.016,0,0,0-8.031,0V103.44a4.007,4.007,0,0,0,4.016,4.016H103.44a4.016,4.016,0,1,0,0-8.031Z" transform="translate(-11 -11)"/></g></g></svg>